<svg width="443" height="422" viewBox="0 0 443 422" fill="none" xmlns="http://www.w3.org/2000/svg">
<path d="M287.636 84.2642C289.689 80.3356 288.176 75.4658 284.144 73.6243C254.784 60.215 221.894 56.5495 190.302 63.166C185.964 64.0746 183.416 68.4918 184.553 72.7758C185.69 77.0598 190.083 79.5857 194.427 78.7045C222.132 73.0839 250.912 76.2914 276.7 87.8736C280.743 89.6896 285.584 88.1927 287.636 84.2642Z" fill="#F9CF4A"/>
<path d="M364.396 210.953C368.818 210.953 372.425 207.365 372.19 202.95C370.221 165.846 354.613 130.66 328.206 104.254C299.908 75.956 261.528 60.0583 221.508 60.0583C181.488 60.0583 143.108 75.956 114.809 104.254C88.4034 130.66 72.7949 165.846 70.8257 202.95C70.5914 207.365 74.198 210.953 78.6196 210.953C83.0412 210.953 86.6009 207.364 86.863 202.95C88.8144 170.096 102.729 138.979 126.132 115.576C151.427 90.2811 185.735 76.0704 221.508 76.0704C257.281 76.0704 291.589 90.2812 316.884 115.576C340.287 138.979 354.202 170.096 356.153 202.95C356.415 207.364 359.975 210.953 364.396 210.953Z" fill="#FA6060"/>
<g opacity="0.5">
<mask id="path-3-inside-1_581_7764" fill="white">
<path d="M333.752 210.953C334.206 210.953 334.574 210.584 334.571 210.13C334.356 180.218 322.424 151.576 301.334 130.409C280.052 109.047 251.186 97.0463 221.088 97.0463C190.989 97.0463 162.124 109.047 140.841 130.409C119.751 151.576 107.819 180.218 107.605 210.13C107.601 210.584 107.969 210.953 108.423 210.953C108.877 210.953 109.244 210.584 109.248 210.13C109.463 180.655 121.221 152.433 142.003 131.575C162.977 110.523 191.425 98.6956 221.088 98.6956C250.75 98.6956 279.198 110.523 300.172 131.575C320.954 152.433 332.713 180.655 332.928 210.13C332.931 210.584 333.298 210.953 333.752 210.953Z"/>
</mask>
<path d="M333.752 210.953C334.206 210.953 334.574 210.584 334.571 210.13C334.356 180.218 322.424 151.576 301.334 130.409C280.052 109.047 251.186 97.0463 221.088 97.0463C190.989 97.0463 162.124 109.047 140.841 130.409C119.751 151.576 107.819 180.218 107.605 210.13C107.601 210.584 107.969 210.953 108.423 210.953C108.877 210.953 109.244 210.584 109.248 210.13C109.463 180.655 121.221 152.433 142.003 131.575C162.977 110.523 191.425 98.6956 221.088 98.6956C250.75 98.6956 279.198 110.523 300.172 131.575C320.954 152.433 332.713 180.655 332.928 210.13C332.931 210.584 333.298 210.953 333.752 210.953Z" stroke="#B3B3B3" stroke-width="1.68127" stroke-dasharray="5.04 23.54" mask="url(#path-3-inside-1_581_7764)"/>
</g>
<path d="M337.663 127.771C341.271 125.195 342.124 120.168 339.36 116.702C319.24 91.464 291.563 73.3196 260.395 64.9331C256.115 63.7814 251.844 66.5685 250.921 70.9037C249.998 75.2389 252.773 79.4782 257.046 80.6569C284.297 88.174 308.515 104.051 326.277 126.044C329.062 129.492 334.056 130.346 337.663 127.771Z" fill="#ECA336"/>
<path d="M364.374 210.953C368.808 210.953 372.425 207.355 372.188 202.927C370.472 170.776 358.482 140.005 337.979 115.133C335.168 111.723 330.089 111.51 326.824 114.489C323.546 117.479 323.341 122.549 326.141 125.992C343.944 147.882 354.426 174.794 356.106 202.928C356.371 207.354 359.94 210.953 364.374 210.953Z" fill="#3E71DE"/>
<g filter="url(#filter0_d_581_7764)">
<circle cx="350.546" cy="149.166" r="12.6096" fill="#3E71DE"/>
</g>
<circle cx="350.126" cy="148.746" r="5.46414" fill="white"/>
<path d="M196.257 185.407C194.323 185.407 192.558 185.029 190.961 184.273C189.364 183.488 188.089 182.451 187.136 181.162C186.183 179.845 185.707 178.374 185.707 176.749C185.707 175.712 185.833 174.787 186.085 173.975C186.365 173.134 186.772 172.378 187.304 171.705C187.864 171.033 188.523 170.444 189.28 169.94C190.064 169.435 190.961 169.001 191.97 168.637L191.549 170.066C190.541 169.674 189.658 169.155 188.901 168.511C188.173 167.866 187.598 167.138 187.178 166.325C186.786 165.484 186.59 164.574 186.59 163.593C186.59 162.052 187.024 160.679 187.892 159.474C188.761 158.269 189.924 157.316 191.381 156.616C192.838 155.915 194.463 155.565 196.257 155.565C198.05 155.565 199.675 155.915 201.133 156.616C202.618 157.316 203.781 158.269 204.621 159.474C205.49 160.679 205.924 162.052 205.924 163.593C205.924 164.574 205.728 165.47 205.336 166.283C204.971 167.096 204.411 167.824 203.654 168.469C202.926 169.085 202.015 169.618 200.922 170.066L200.628 168.805C201.861 169.169 202.94 169.73 203.865 170.486C204.789 171.215 205.518 172.111 206.05 173.176C206.583 174.241 206.849 175.432 206.849 176.749C206.849 178.374 206.373 179.845 205.42 181.162C204.467 182.479 203.192 183.516 201.595 184.273C200.026 185.029 198.246 185.407 196.257 185.407ZM196.257 180.238C197.125 180.238 197.896 180.069 198.569 179.733C199.269 179.397 199.816 178.935 200.208 178.346C200.6 177.758 200.796 177.099 200.796 176.371C200.796 175.586 200.6 174.9 200.208 174.311C199.816 173.695 199.283 173.218 198.611 172.882C197.938 172.518 197.154 172.336 196.257 172.336C195.416 172.336 194.66 172.518 193.987 172.882C193.315 173.218 192.768 173.695 192.348 174.311C191.956 174.9 191.759 175.586 191.759 176.371C191.759 177.099 191.956 177.758 192.348 178.346C192.768 178.907 193.315 179.369 193.987 179.733C194.66 180.069 195.416 180.238 196.257 180.238ZM196.257 167.166C197.013 167.166 197.686 167.026 198.274 166.745C198.891 166.465 199.367 166.073 199.703 165.568C200.04 165.064 200.208 164.49 200.208 163.845C200.208 163.173 200.04 162.584 199.703 162.08C199.367 161.575 198.891 161.183 198.274 160.903C197.686 160.595 197.027 160.441 196.299 160.441C195.514 160.441 194.828 160.595 194.239 160.903C193.651 161.183 193.189 161.575 192.852 162.08C192.516 162.584 192.348 163.173 192.348 163.845C192.348 164.49 192.516 165.064 192.852 165.568C193.189 166.073 193.651 166.465 194.239 166.745C194.828 167.026 195.5 167.166 196.257 167.166ZM220.248 185.702C217.979 185.702 216.003 185.211 214.322 184.231C212.641 183.25 211.072 181.569 209.614 179.187L214.28 176.287C214.896 177.267 215.541 178.066 216.213 178.682C216.886 179.271 217.572 179.705 218.273 179.985C219.002 180.266 219.758 180.406 220.543 180.406C221.383 180.406 222.154 180.21 222.854 179.817C223.583 179.425 224.157 178.879 224.578 178.178C225.026 177.449 225.25 176.623 225.25 175.698C225.25 174.773 225.068 173.989 224.704 173.344C224.34 172.7 223.821 172.209 223.149 171.873C222.476 171.537 221.65 171.369 220.669 171.369C220.248 171.369 219.786 171.425 219.282 171.537C218.805 171.621 218.287 171.747 217.727 171.915C217.166 172.083 216.592 172.294 216.003 172.546L214.532 168.637L222.266 160.146L223.863 161.281L211.548 161.155V155.691H229.201L230.378 158.003L220.711 168.469L219.282 166.787C219.506 166.703 219.87 166.619 220.375 166.535C220.879 166.423 221.341 166.367 221.762 166.367C223.023 166.367 224.214 166.605 225.334 167.082C226.455 167.53 227.45 168.174 228.319 169.015C229.187 169.856 229.86 170.836 230.336 171.957C230.841 173.078 231.093 174.283 231.093 175.572C231.093 177.506 230.602 179.243 229.622 180.784C228.669 182.297 227.366 183.502 225.713 184.399C224.087 185.267 222.266 185.702 220.248 185.702ZM246.322 185.702C243.828 185.702 241.685 185.099 239.892 183.894C238.126 182.661 236.767 180.924 235.814 178.682C234.89 176.413 234.427 173.709 234.427 170.57C234.427 167.432 234.89 164.742 235.814 162.5C236.767 160.23 238.126 158.493 239.892 157.288C241.685 156.055 243.828 155.439 246.322 155.439C248.816 155.439 250.946 156.055 252.711 157.288C254.505 158.493 255.864 160.23 256.788 162.5C257.741 164.742 258.217 167.432 258.217 170.57C258.217 173.709 257.741 176.413 256.788 178.682C255.864 180.924 254.505 182.661 252.711 183.894C250.946 185.099 248.816 185.702 246.322 185.702ZM246.322 180.28C248.2 180.28 249.643 179.439 250.652 177.758C251.688 176.048 252.207 173.653 252.207 170.57C252.207 167.404 251.688 164.966 250.652 163.257C249.643 161.547 248.2 160.693 246.322 160.693C244.445 160.693 242.988 161.547 241.951 163.257C240.942 164.966 240.438 167.404 240.438 170.57C240.438 173.653 240.942 176.048 241.951 177.758C242.988 179.439 244.445 180.28 246.322 180.28Z" fill="#22242C"/>
<path d="M21.328 209.18C20.144 209.18 19.112 208.908 18.232 208.364C17.368 207.82 16.552 206.908 15.784 205.628L17.8 204.356C18.2 204.948 18.592 205.436 18.976 205.82C19.376 206.188 19.784 206.46 20.2 206.636C20.616 206.812 21.056 206.9 21.52 206.9C22.08 206.9 22.6 206.764 23.08 206.492C23.56 206.204 23.944 205.812 24.232 205.316C24.52 204.82 24.664 204.26 24.664 203.636C24.664 203.012 24.552 202.484 24.328 202.052C24.104 201.604 23.776 201.268 23.344 201.044C22.912 200.804 22.4 200.684 21.808 200.684C21.536 200.684 21.248 200.716 20.944 200.78C20.656 200.828 20.344 200.908 20.008 201.02C19.672 201.116 19.304 201.244 18.904 201.404L18.184 199.508L23.368 193.796L23.872 194.54H16.72V192.14H26.344L26.824 193.1L21.328 199.196L20.728 198.572C20.856 198.508 21.064 198.452 21.352 198.404C21.656 198.34 21.904 198.308 22.096 198.308C22.8 198.308 23.456 198.444 24.064 198.716C24.688 198.972 25.224 199.34 25.672 199.82C26.136 200.284 26.496 200.836 26.752 201.476C27.024 202.1 27.16 202.772 27.16 203.492C27.16 204.58 26.896 205.556 26.368 206.42C25.856 207.268 25.16 207.94 24.28 208.436C23.4 208.932 22.416 209.18 21.328 209.18ZM35.2791 209.18C33.9991 209.18 32.8951 208.828 31.9671 208.124C31.0551 207.42 30.3511 206.428 29.8551 205.148C29.3591 203.852 29.1111 202.316 29.1111 200.54C29.1111 198.764 29.3591 197.236 29.8551 195.956C30.3511 194.66 31.0551 193.66 31.9671 192.956C32.8951 192.252 33.9991 191.9 35.2791 191.9C36.5591 191.9 37.6631 192.252 38.5911 192.956C39.5191 193.66 40.2311 194.66 40.7271 195.956C41.2231 197.236 41.4711 198.764 41.4711 200.54C41.4711 202.316 41.2231 203.852 40.7271 205.148C40.2311 206.428 39.5191 207.42 38.5911 208.124C37.6631 208.828 36.5591 209.18 35.2791 209.18ZM35.2791 206.828C36.4471 206.828 37.3511 206.284 37.9911 205.196C38.6311 204.092 38.9511 202.54 38.9511 200.54C38.9511 198.54 38.6311 196.996 37.9911 195.908C37.3511 194.804 36.4471 194.252 35.2791 194.252C34.1111 194.252 33.2071 194.804 32.5671 195.908C31.9271 196.996 31.6071 198.54 31.6071 200.54C31.6071 202.54 31.9271 204.092 32.5671 205.196C33.2071 206.284 34.1111 206.828 35.2791 206.828ZM49.8572 209.18C48.5772 209.18 47.4732 208.828 46.5452 208.124C45.6332 207.42 44.9292 206.428 44.4332 205.148C43.9372 203.852 43.6892 202.316 43.6892 200.54C43.6892 198.764 43.9372 197.236 44.4332 195.956C44.9292 194.66 45.6332 193.66 46.5452 192.956C47.4732 192.252 48.5772 191.9 49.8572 191.9C51.1372 191.9 52.2412 192.252 53.1692 192.956C54.0972 193.66 54.8092 194.66 55.3052 195.956C55.8012 197.236 56.0492 198.764 56.0492 200.54C56.0492 202.316 55.8012 203.852 55.3052 205.148C54.8092 206.428 54.0972 207.42 53.1692 208.124C52.2412 208.828 51.1372 209.18 49.8572 209.18ZM49.8572 206.828C51.0252 206.828 51.9292 206.284 52.5692 205.196C53.2092 204.092 53.5292 202.54 53.5292 200.54C53.5292 198.54 53.2092 196.996 52.5692 195.908C51.9292 194.804 51.0252 194.252 49.8572 194.252C48.6892 194.252 47.7852 194.804 47.1452 195.908C46.5052 196.996 46.1852 198.54 46.1852 200.54C46.1852 202.54 46.5052 204.092 47.1452 205.196C47.7852 206.284 48.6892 206.828 49.8572 206.828Z" fill="#FA6060"/>
<path d="M390.484 208.94L390.388 208.7L395.38 198.092L395.452 200.084C395.084 200.708 394.652 201.252 394.156 201.716C393.66 202.164 393.124 202.508 392.548 202.748C391.972 202.988 391.388 203.108 390.796 203.108C389.884 203.108 389.044 202.868 388.276 202.388C387.508 201.908 386.892 201.268 386.428 200.468C385.964 199.668 385.732 198.796 385.732 197.852C385.732 196.716 385.988 195.7 386.5 194.804C387.012 193.892 387.708 193.172 388.588 192.644C389.484 192.116 390.484 191.852 391.588 191.852C392.388 191.852 393.14 191.996 393.844 192.284C394.548 192.572 395.164 192.98 395.692 193.508C396.22 194.02 396.636 194.62 396.94 195.308C397.244 195.98 397.396 196.7 397.396 197.468C397.396 197.868 397.356 198.3 397.276 198.764C397.196 199.212 397.06 199.724 396.868 200.3C396.692 200.86 396.452 201.508 396.148 202.244C395.844 202.964 395.468 203.804 395.02 204.764L393.028 208.94H390.484ZM391.348 200.708C391.972 200.708 392.532 200.572 393.028 200.3C393.524 200.012 393.908 199.636 394.18 199.172C394.468 198.692 394.612 198.156 394.612 197.564C394.612 196.94 394.476 196.38 394.204 195.884C393.932 195.372 393.548 194.972 393.052 194.684C392.572 194.396 392.02 194.252 391.396 194.252C390.82 194.252 390.308 194.396 389.86 194.684C389.412 194.956 389.052 195.34 388.78 195.836C388.524 196.316 388.396 196.884 388.396 197.54C388.396 198.1 388.524 198.62 388.78 199.1C389.052 199.58 389.412 199.972 389.86 200.276C390.308 200.564 390.804 200.708 391.348 200.708ZM405.503 209.18C404.223 209.18 403.119 208.828 402.191 208.124C401.279 207.42 400.575 206.428 400.079 205.148C399.583 203.852 399.335 202.316 399.335 200.54C399.335 198.764 399.583 197.236 400.079 195.956C400.575 194.66 401.279 193.66 402.191 192.956C403.119 192.252 404.223 191.9 405.503 191.9C406.783 191.9 407.887 192.252 408.815 192.956C409.743 193.66 410.455 194.66 410.951 195.956C411.447 197.236 411.695 198.764 411.695 200.54C411.695 202.316 411.447 203.852 410.951 205.148C410.455 206.428 409.743 207.42 408.815 208.124C407.887 208.828 406.783 209.18 405.503 209.18ZM405.503 206.828C406.671 206.828 407.575 206.284 408.215 205.196C408.855 204.092 409.175 202.54 409.175 200.54C409.175 198.54 408.855 196.996 408.215 195.908C407.575 194.804 406.671 194.252 405.503 194.252C404.335 194.252 403.431 194.804 402.791 195.908C402.151 196.996 401.831 198.54 401.831 200.54C401.831 202.54 402.151 204.092 402.791 205.196C403.431 206.284 404.335 206.828 405.503 206.828ZM420.081 209.18C418.801 209.18 417.697 208.828 416.769 208.124C415.857 207.42 415.153 206.428 414.657 205.148C414.161 203.852 413.913 202.316 413.913 200.54C413.913 198.764 414.161 197.236 414.657 195.956C415.153 194.66 415.857 193.66 416.769 192.956C417.697 192.252 418.801 191.9 420.081 191.9C421.361 191.9 422.465 192.252 423.393 192.956C424.321 193.66 425.033 194.66 425.529 195.956C426.025 197.236 426.273 198.764 426.273 200.54C426.273 202.316 426.025 203.852 425.529 205.148C425.033 206.428 424.321 207.42 423.393 208.124C422.465 208.828 421.361 209.18 420.081 209.18ZM420.081 206.828C421.249 206.828 422.153 206.284 422.793 205.196C423.433 204.092 423.753 202.54 423.753 200.54C423.753 198.54 423.433 196.996 422.793 195.908C422.153 194.804 421.249 194.252 420.081 194.252C418.913 194.252 418.009 194.804 417.369 195.908C416.729 196.996 416.409 198.54 416.409 200.54C416.409 202.54 416.729 204.092 417.369 205.196C418.009 206.284 418.913 206.828 420.081 206.828Z" fill="#3E71DE"/>
<defs>
<filter id="filter0_d_581_7764" x="334.574" y="136.556" width="31.9442" height="31.9442" filterUnits="userSpaceOnUse" color-interpolation-filters="sRGB">
<feFlood flood-opacity="0" result="BackgroundImageFix"/>
<feColorMatrix in="SourceAlpha" type="matrix" values="0 0 0 0 0 0 0 0 0 0 0 0 0 0 0 0 0 0 127 0" result="hardAlpha"/>
<feOffset dy="3.36255"/>
<feGaussianBlur stdDeviation="1.68127"/>
<feComposite in2="hardAlpha" operator="out"/>
<feColorMatrix type="matrix" values="0 0 0 0 0 0 0 0 0 0 0 0 0 0 0 0 0 0 0.25 0"/>
<feBlend mode="normal" in2="BackgroundImageFix" result="effect1_dropShadow_581_7764"/>
<feBlend mode="normal" in="SourceGraphic" in2="effect1_dropShadow_581_7764" result="shape"/>
</filter>
</defs>
</svg>
