<svg width="16" height="18" viewBox="0 0 16 18" fill="none" xmlns="http://www.w3.org/2000/svg">
<path d="M12.1667 17.3333H3.83333C3.39131 17.3333 2.96738 17.1577 2.65482 16.8452C2.34226 16.5326 2.16667 16.1087 2.16667 15.6667V4.83332H0.5V3.16666H3.83333V2.33332C3.83333 1.8913 4.00893 1.46737 4.32149 1.15481C4.63405 0.842251 5.05797 0.666656 5.5 0.666656H10.5C10.942 0.666656 11.366 0.842251 11.6785 1.15481C11.9911 1.46737 12.1667 1.8913 12.1667 2.33332V3.16666H15.5V4.83332H13.8333V15.6667C13.8333 16.1087 13.6577 16.5326 13.3452 16.8452C13.0326 17.1577 12.6087 17.3333 12.1667 17.3333ZM3.83333 4.83332V15.6667H12.1667V4.83332H3.83333ZM5.5 2.33332V3.16666H10.5V2.33332H5.5ZM10.5 14H8.83333V6.49999H10.5V14ZM7.16667 14H5.5V6.49999H7.16667V14Z" fill="white"/>
</svg>
