<svg width="15" height="15" viewBox="0 0 15 15" fill="none" xmlns="http://www.w3.org/2000/svg">
<path d="M1.31499 14.4342C1.21094 14.4341 1.10806 14.4122 1.0129 14.3701C0.917736 14.328 0.832375 14.2666 0.762242 14.1897C0.690841 14.1135 0.636357 14.0231 0.602364 13.9243C0.56837 13.8256 0.555635 13.7208 0.564992 13.6167L0.748742 11.5962L9.23724 3.11074L11.89 5.76274L3.40374 14.2475L1.38324 14.4312C1.36055 14.4333 1.33778 14.4343 1.31499 14.4342V14.4342ZM12.4195 5.23249L9.76749 2.58049L11.3582 0.98974C11.4279 0.920008 11.5106 0.864689 11.6017 0.826946C11.6927 0.789202 11.7903 0.769775 11.8889 0.769775C11.9874 0.769775 12.085 0.789202 12.1761 0.826946C12.2671 0.864689 12.3498 0.920008 12.4195 0.98974L14.0102 2.58049C14.08 2.65015 14.1353 2.73286 14.173 2.82391C14.2108 2.91496 14.2302 3.01255 14.2302 3.11112C14.2302 3.20968 14.2108 3.30727 14.173 3.39832C14.1353 3.48937 14.08 3.57209 14.0102 3.64174L12.4202 5.23174L12.4195 5.23249V5.23249Z" fill="white"/>
</svg>
