<svg width="148" height="38" viewBox="0 0 148 38" fill="none" xmlns="http://www.w3.org/2000/svg">
<path d="M27.3083 13.4157H0.476907C0.271093 13.4157 0.104248 13.2488 0.104248 13.043V9.15577C0.104248 9.02434 0.173481 8.90262 0.28645 8.83545L13.8046 0.797645C13.8622 0.763384 13.928 0.7453 13.995 0.7453H14.5264C14.5992 0.7453 14.6703 0.766584 14.7311 0.806526L27.513 9.20605C27.6178 9.27495 27.681 9.392 27.681 9.51748V13.043C27.681 13.2488 27.5141 13.4157 27.3083 13.4157Z" fill="#3E71DE"/>
<path d="M5.69454 17.8876H0.104344C-0.256343 17.8876 0.430271 30.4552 0.474757 31.2626C0.476281 31.2903 0.480989 31.3173 0.488724 31.344C1.69246 35.4838 5.2026 36.5205 6.8122 36.5205C9.54503 36.8932 16.2777 37.4149 21.3459 36.5205C26.414 35.6261 27.9295 31.9244 28.0537 30.1853V18.2602C28.0537 18.0544 27.8869 17.8876 27.6811 17.8876H23.2092C23.0034 17.8876 22.8366 18.0529 22.8352 18.2587C22.8242 19.9532 22.7398 23.52 22.4639 26.8314C22.1657 30.4089 20.3521 31.3033 19.4826 31.3033H9.79347C7.11033 31.3033 6.1911 28.8189 6.06688 27.5767V18.2602C6.06688 18.0544 5.90036 17.8876 5.69454 17.8876Z" fill="#3E71DE"/>
<path d="M52.5296 30V9.13112H57.0015V30H52.5296ZM39.3524 30V9.13112H43.8243V30H39.3524ZM41.1709 21.6524V17.5383H54.7953V21.6524H41.1709ZM69.1476 30.2981C67.5576 30.2981 66.1266 29.9503 64.8546 29.2547C63.6024 28.5392 62.6087 27.5653 61.8733 26.333C61.1578 25.1008 60.8 23.6996 60.8 22.1294C60.8 20.5196 61.1578 19.0985 61.8733 17.8662C62.6087 16.634 63.6024 15.67 64.8546 14.9744C66.1266 14.2589 67.5576 13.9011 69.1476 13.9011C70.7575 13.9011 72.1885 14.2589 73.4406 14.9744C74.6928 15.67 75.6766 16.634 76.3921 17.8662C77.1275 19.0985 77.4951 20.5196 77.4951 22.1294C77.4951 23.6996 77.1275 25.1008 76.3921 26.333C75.6766 27.5653 74.6928 28.5392 73.4406 29.2547C72.1885 29.9503 70.7575 30.2981 69.1476 30.2981ZM69.1476 26.6312C69.9426 26.6312 70.6382 26.4324 71.2345 26.0349C71.8506 25.6374 72.3276 25.1008 72.6655 24.425C73.0232 23.7493 73.1922 22.9841 73.1723 22.1294C73.1922 21.2351 73.0232 20.45 72.6655 19.7742C72.3276 19.0786 71.8506 18.542 71.2345 18.1644C70.6382 17.7669 69.9426 17.5681 69.1476 17.5681C68.3725 17.5681 67.6768 17.7669 67.0607 18.1644C66.4446 18.5619 65.9576 19.0985 65.5999 19.7742C65.2421 20.45 65.0732 21.2351 65.0931 22.1294C65.0732 22.9841 65.2421 23.7493 65.5999 24.425C65.9576 25.1008 66.4446 25.6374 67.0607 26.0349C67.6768 26.4324 68.3725 26.6312 69.1476 26.6312ZM80.6504 30V14.2291H84.7347L84.8242 17.2402L84.1981 17.419C84.3969 16.9023 84.6751 16.4352 85.0329 16.0178C85.4105 15.5806 85.8378 15.2129 86.3148 14.9148C86.7918 14.6167 87.2986 14.3781 87.8353 14.1993C88.3918 14.0204 88.9383 13.931 89.475 13.931C90.3097 13.931 91.0451 14.0601 91.6811 14.3185C92.337 14.5769 92.8935 14.9843 93.3506 15.5408C93.8077 16.0973 94.1556 16.8228 94.3941 17.7172L93.768 17.5979L93.9767 17.1507C94.2351 16.6936 94.563 16.2663 94.9605 15.8688C95.358 15.4713 95.8052 15.1334 96.3021 14.8552C96.7989 14.557 97.3157 14.3285 97.8523 14.1695C98.389 14.0105 98.9156 13.931 99.4324 13.931C100.665 13.931 101.678 14.1794 102.473 14.6763C103.288 15.1732 103.894 15.9085 104.292 16.8824C104.709 17.8364 104.918 19.0289 104.918 20.4599V30H100.685V20.7581C100.685 19.6848 100.466 18.8898 100.029 18.3731C99.6113 17.8563 98.9653 17.5979 98.0908 17.5979C97.6337 17.5979 97.2064 17.6774 96.8089 17.8364C96.4114 17.9755 96.0735 18.1842 95.7953 18.4625C95.517 18.7407 95.2984 19.0587 95.1394 19.4165C94.9804 19.7742 94.9009 20.1717 94.9009 20.609V30H90.6675V20.6984C90.6675 19.7047 90.4389 18.9395 89.9818 18.4029C89.5445 17.8662 88.9085 17.5979 88.0738 17.5979C87.6365 17.5979 87.2191 17.6774 86.8216 17.8364C86.4241 17.9755 86.0863 18.1842 85.808 18.4625C85.5297 18.7209 85.3111 19.0389 85.1521 19.4165C84.9931 19.7742 84.9136 20.1717 84.9136 20.609V30H80.6504ZM116.433 30.2981C114.724 30.2981 113.223 29.9503 111.931 29.2547C110.659 28.5591 109.665 27.605 108.95 26.3927C108.254 25.1803 107.906 23.799 107.906 22.2487C107.906 21.0164 108.105 19.8935 108.503 18.8799C108.9 17.8464 109.457 16.9619 110.172 16.2265C110.888 15.4912 111.732 14.9247 112.706 14.5272C113.7 14.1098 114.783 13.9011 115.956 13.9011C117.029 13.9011 118.013 14.0999 118.907 14.4974C119.822 14.875 120.607 15.4216 121.263 16.1371C121.938 16.8327 122.455 17.6575 122.813 18.6116C123.171 19.5656 123.339 20.609 123.32 21.7419L123.29 23.0536H110.619L109.934 20.4301H119.802L119.295 20.9668V20.3407C119.255 19.7842 119.076 19.2972 118.758 18.8799C118.46 18.4625 118.073 18.1345 117.596 17.896C117.119 17.6377 116.592 17.5085 116.015 17.5085C115.121 17.5085 114.366 17.6874 113.75 18.0451C113.153 18.383 112.696 18.8799 112.378 19.5357C112.08 20.1717 111.931 20.9668 111.931 21.9208C111.931 22.8549 112.13 23.6797 112.527 24.3952C112.925 25.0908 113.491 25.6275 114.227 26.0051C114.982 26.3827 115.866 26.5715 116.88 26.5715C117.576 26.5715 118.212 26.4622 118.788 26.2436C119.364 26.025 119.991 25.6473 120.666 25.1107L122.664 27.9429C122.107 28.4398 121.481 28.8671 120.786 29.2249C120.09 29.5826 119.374 29.8509 118.639 30.0298C117.904 30.2087 117.168 30.2981 116.433 30.2981ZM135.63 30.1789C133.94 30.1789 132.43 29.8311 131.098 29.1354C129.786 28.4199 128.753 27.446 127.998 26.2138C127.242 24.9617 126.865 23.5505 126.865 21.9804V9.1013H131.337V21.7121C131.337 22.5468 131.525 23.3021 131.903 23.9778C132.301 24.6337 132.827 25.1604 133.483 25.5579C134.139 25.9554 134.855 26.1542 135.63 26.1542C136.445 26.1542 137.18 25.9554 137.836 25.5579C138.512 25.1604 139.038 24.6337 139.416 23.9778C139.813 23.3021 140.012 22.5468 140.012 21.7121V9.1013H144.335V21.9804C144.335 23.5505 143.957 24.9617 143.202 26.2138C142.467 27.446 141.443 28.4199 140.131 29.1354C138.82 29.8311 137.319 30.1789 135.63 30.1789Z" fill="black"/>
</svg>
