<svg width="30" height="30" viewBox="0 0 30 30" fill="none" xmlns="http://www.w3.org/2000/svg">
<path d="M13.75 25C14.5457 25 15.3088 24.684 15.8714 24.1212C16.434 23.5587 16.7502 22.7958 16.7502 22V22.4008C16.7502 22.0434 16.5596 21.7134 16.25 21.5348C15.9407 21.356 15.5595 21.356 15.2501 21.5348C14.9408 21.7134 14.7502 22.0435 14.7502 22.4008V22C14.7502 22.2652 14.6448 22.5195 14.4572 22.7071C14.2697 22.8946 14.0153 22.9999 13.7501 22.9999H7.00007C6.73483 22.9999 6.48056 22.8946 6.29292 22.7071C6.10546 22.5195 6.00013 22.2653 6.00013 22V7C6.00013 6.73476 6.10546 6.48049 6.29292 6.29286C6.48056 6.10539 6.73482 6.00006 7.00007 6.00006H13.7501C14.0153 6.00006 14.2698 6.10539 14.4572 6.29286C14.6448 6.4805 14.7502 6.73475 14.7502 7V6.63674C14.7502 6.99405 14.9408 7.32415 15.2501 7.50272C15.5595 7.68147 15.9407 7.68147 16.25 7.50272C16.5596 7.32415 16.7502 6.99401 16.7502 6.63674V7C16.7502 6.20429 16.434 5.44134 15.8714 4.87875C15.3088 4.31603 14.5458 4 13.75 4H7C6.20446 4 5.44134 4.31599 4.87875 4.87875C4.31616 5.44134 4 6.20424 4 7V22C4 22.7957 4.31616 23.5587 4.87875 24.1212C5.44134 24.684 6.20442 25 7 25H13.75Z" fill="#8E8EA1"/>
<path d="M24.755 13.3434L19.505 8.09339C19.2521 7.84053 18.8838 7.74201 18.5386 7.8346C18.1933 7.92703 17.9235 8.19681 17.8311 8.5421C17.7385 8.88739 17.8372 9.25568 18.09 9.50853L21.6775 13.0936H14.3002C13.9429 13.0936 13.6128 13.2842 13.4342 13.5935C13.2555 13.9029 13.2555 14.2841 13.4342 14.5934C13.6128 14.9028 13.9429 15.0934 14.3002 15.0934H21.6775L18.0799 18.6885C17.8691 18.8704 17.7435 19.1322 17.7337 19.4107C17.724 19.689 17.8309 19.9589 18.0286 20.1553C18.2262 20.3515 18.4968 20.4565 18.7754 20.4448C19.0537 20.4331 19.3146 20.3056 19.495 20.0934L24.745 14.8434C24.9604 14.6535 25.0835 14.3806 25.0835 14.0935C25.0835 13.8065 24.9602 13.5334 24.7449 13.3435L24.755 13.3434Z" fill="#8E8EA1"/>
</svg>
