<svg width="281" height="71" viewBox="0 0 281 71" fill="none" xmlns="http://www.w3.org/2000/svg">
<path d="M52.0287 25.56H0.908731C0.516608 25.56 0.19873 25.2421 0.19873 24.85V17.4438C0.19873 17.1934 0.330636 16.9616 0.545868 16.8336L26.301 1.51971C26.4108 1.45444 26.5361 1.41998 26.6639 1.41998H27.6763C27.8149 1.41998 27.9504 1.46053 28.0662 1.53663L52.4186 17.5396C52.6184 17.6709 52.7387 17.8939 52.7387 18.133V24.85C52.7387 25.2421 52.4209 25.56 52.0287 25.56Z" fill="white"/>
<path d="M10.8494 34.08H0.1988C-0.488392 34.08 0.819765 58.0241 0.904521 59.5625C0.907425 59.6152 0.916395 59.6668 0.931132 59.7174C3.22453 67.6049 9.91215 69.58 12.9788 69.58C18.1855 70.29 31.0128 71.284 40.6688 69.58C50.3248 67.876 53.2121 60.8233 53.4488 57.51V34.79C53.4488 34.3978 53.1309 34.08 52.7388 34.08H44.2188C43.8267 34.08 43.5089 34.395 43.5063 34.7871C43.4853 38.0154 43.3245 44.811 42.7988 51.12C42.2308 57.936 38.7755 59.64 37.1188 59.64H18.6588C13.5468 59.64 11.7955 54.9066 11.5588 52.54V34.79C11.5588 34.3978 11.2415 34.08 10.8494 34.08Z" fill="white"/>
<path d="M99.8407 57V17.24H108.361V57H99.8407ZM74.7351 57V17.24H83.2551V57H74.7351ZM78.1999 41.096V33.2576H104.157V41.096H78.1999ZM131.502 57.568C128.472 57.568 125.746 56.9053 123.323 55.58C120.937 54.2168 119.044 52.3613 117.643 50.0136C116.279 47.6659 115.598 44.9963 115.598 42.0048C115.598 38.9376 116.279 36.2301 117.643 33.8824C119.044 31.5347 120.937 29.6981 123.323 28.3728C125.746 27.0096 128.472 26.328 131.502 26.328C134.569 26.328 137.295 27.0096 139.681 28.3728C142.067 29.6981 143.941 31.5347 145.304 33.8824C146.705 36.2301 147.406 38.9376 147.406 42.0048C147.406 44.9963 146.705 47.6659 145.304 50.0136C143.941 52.3613 142.067 54.2168 139.681 55.58C137.295 56.9053 134.569 57.568 131.502 57.568ZM131.502 50.5816C133.016 50.5816 134.342 50.2029 135.478 49.4456C136.652 48.6883 137.56 47.6659 138.204 46.3784C138.886 45.0909 139.208 43.6331 139.17 42.0048C139.208 40.3008 138.886 38.8051 138.204 37.5176C137.56 36.1923 136.652 35.1699 135.478 34.4504C134.342 33.6931 133.016 33.3144 131.502 33.3144C130.025 33.3144 128.7 33.6931 127.526 34.4504C126.352 35.2077 125.424 36.2301 124.743 37.5176C124.061 38.8051 123.739 40.3008 123.777 42.0048C123.739 43.6331 124.061 45.0909 124.743 46.3784C125.424 47.6659 126.352 48.6883 127.526 49.4456C128.7 50.2029 130.025 50.5816 131.502 50.5816ZM153.417 57V26.9528H161.199L161.369 32.6896L160.176 33.0304C160.555 32.0459 161.085 31.156 161.767 30.3608C162.486 29.5277 163.3 28.8272 164.209 28.2592C165.118 27.6912 166.084 27.2368 167.106 26.896C168.166 26.5552 169.208 26.3848 170.23 26.3848C171.82 26.3848 173.222 26.6309 174.433 27.1232C175.683 27.6155 176.743 28.3917 177.614 29.452C178.485 30.5123 179.148 31.8944 179.602 33.5984L178.409 33.3712L178.807 32.5192C179.299 31.6483 179.924 30.8341 180.681 30.0768C181.439 29.3195 182.291 28.6757 183.237 28.1456C184.184 27.5776 185.168 27.1421 186.191 26.8392C187.213 26.5363 188.217 26.3848 189.201 26.3848C191.549 26.3848 193.48 26.8581 194.995 27.8048C196.547 28.7515 197.702 30.1525 198.46 32.008C199.255 33.8256 199.652 36.0976 199.652 38.824V57H191.587V39.392C191.587 37.3472 191.17 35.8325 190.337 34.848C189.542 33.8635 188.311 33.3712 186.645 33.3712C185.774 33.3712 184.96 33.5227 184.203 33.8256C183.446 34.0907 182.802 34.4883 182.272 35.0184C181.742 35.5485 181.325 36.1544 181.022 36.836C180.719 37.5176 180.568 38.2749 180.568 39.108V57H172.502V39.2784C172.502 37.3851 172.067 35.9272 171.196 34.9048C170.363 33.8824 169.151 33.3712 167.56 33.3712C166.727 33.3712 165.932 33.5227 165.175 33.8256C164.418 34.0907 163.774 34.4883 163.244 35.0184C162.714 35.5107 162.297 36.1165 161.994 36.836C161.691 37.5176 161.54 38.2749 161.54 39.108V57H153.417ZM221.591 57.568C218.334 57.568 215.476 56.9053 213.014 55.58C210.591 54.2547 208.697 52.4371 207.334 50.1272C206.009 47.8173 205.346 45.1856 205.346 42.232C205.346 39.8843 205.725 37.7448 206.482 35.8136C207.24 33.8445 208.3 32.1595 209.663 30.7584C211.026 29.3573 212.636 28.2781 214.491 27.5208C216.384 26.7256 218.448 26.328 220.682 26.328C222.727 26.328 224.601 26.7067 226.305 27.464C228.047 28.1835 229.543 29.2248 230.793 30.588C232.08 31.9133 233.065 33.4848 233.746 35.3024C234.428 37.12 234.75 39.108 234.712 41.2664L234.655 43.7656H210.515L209.209 38.7672H228.009L227.044 39.7896V38.5968C226.968 37.5365 226.627 36.6088 226.021 35.8136C225.453 35.0184 224.715 34.3936 223.806 33.9392C222.897 33.4469 221.894 33.2008 220.796 33.2008C219.092 33.2008 217.653 33.5416 216.479 34.2232C215.343 34.8669 214.472 35.8136 213.866 37.0632C213.298 38.2749 213.014 39.7896 213.014 41.6072C213.014 43.3869 213.393 44.9584 214.15 46.3216C214.908 47.6469 215.987 48.6693 217.388 49.3888C218.827 50.1083 220.512 50.468 222.443 50.468C223.768 50.468 224.98 50.2597 226.078 49.8432C227.176 49.4267 228.369 48.7072 229.657 47.6848L233.462 53.0808C232.402 54.0275 231.209 54.8416 229.884 55.5232C228.558 56.2048 227.195 56.716 225.794 57.0568C224.393 57.3976 222.992 57.568 221.591 57.568ZM258.165 57.3408C254.947 57.3408 252.069 56.6781 249.532 55.3528C247.033 53.9896 245.063 52.1341 243.625 49.7864C242.186 47.4008 241.466 44.7123 241.466 41.7208V17.1832H249.986V41.2096C249.986 42.8 250.346 44.2389 251.065 45.5264C251.823 46.776 252.826 47.7795 254.076 48.5368C255.325 49.2941 256.689 49.6728 258.165 49.6728C259.718 49.6728 261.119 49.2941 262.369 48.5368C263.656 47.7795 264.659 46.776 265.379 45.5264C266.136 44.2389 266.515 42.8 266.515 41.2096V17.1832H274.751V41.7208C274.751 44.7123 274.031 47.4008 272.593 49.7864C271.191 52.1341 269.241 53.9896 266.742 55.3528C264.243 56.6781 261.384 57.3408 258.165 57.3408Z" fill="black"/>
</svg>
