<svg width="30" height="30" viewBox="0 0 30 30" fill="none" xmlns="http://www.w3.org/2000/svg">
<path d="M19.8708 5.72234C19.6077 5.46397 19.1819 5.46397 18.9187 5.72234L15.9953 8.61706C15.5646 9.04289 15.8661 9.77014 16.4689 9.77014H16.5646V12.3634C16.5646 12.7366 16.8661 13.0381 17.2393 13.0381H21.555C21.9282 13.0381 22.2297 12.7366 22.2297 12.3634V9.77014H22.3254C22.9282 9.77014 23.2297 9.03811 22.799 8.61706L19.8708 5.72234ZM19.3972 7.14818L20.6794 8.4209H18.1101L19.3972 7.14818ZM20.8756 11.6889H17.9139V9.77032H20.8756V11.6889Z" fill="#8E8EA1"/>
<path d="M25.0432 3.64587H13.7468C12.6703 3.64587 11.7947 4.52148 11.7947 5.59801V13.1673C11.7947 14.2438 12.6703 15.1194 13.7468 15.1194H14.7133V17.1481C14.7133 17.6887 15.321 18.0094 15.7659 17.7079L19.5745 15.1242H25.0479C26.1244 15.1242 27 14.2486 27 13.1721V5.59801C26.9952 4.52148 26.1197 3.64587 25.0431 3.64587H25.0432ZM25.646 13.1675C25.646 13.4976 25.3781 13.7656 25.0479 13.7656H19.3637C19.2297 13.7656 19.0957 13.8038 18.9857 13.8804L16.0623 15.866V14.4402C16.0623 14.067 15.7608 13.7656 15.3876 13.7656H13.7465C13.4163 13.7656 13.1484 13.4976 13.1484 13.1675V5.59823C13.1484 5.26809 13.4163 5.00014 13.7465 5.00014H25.0477C25.3778 5.00014 25.6457 5.26808 25.6457 5.59823L25.646 13.1675Z" fill="#8E8EA1"/>
<path d="M8.98575 19.9521C10.6412 19.9521 11.9857 18.6076 11.9857 16.9521C11.9857 15.2966 10.6412 13.9521 8.98575 13.9521C7.33025 13.9521 5.98578 15.2966 5.98578 16.9521C5.98578 18.6076 7.33025 19.9521 8.98575 19.9521V19.9521ZM8.98575 15.3015C9.89482 15.3015 10.6364 16.0431 10.6364 16.9522C10.6364 17.8613 9.89482 18.6029 8.98575 18.6029C8.07667 18.6029 7.33506 17.8613 7.33506 16.9522C7.33506 16.0431 8.07667 15.3015 8.98575 15.3015Z" fill="#8E8EA1"/>
<path d="M10.7946 20.6253C10.4836 20.5296 10.1486 20.6732 10.0003 20.965L8.98596 22.9602L7.97159 20.965C7.82327 20.6732 7.48833 20.5296 7.17735 20.6253C4.51229 21.4195 2.68951 23.8741 2.68951 26.6539C2.68951 27.0271 2.99095 27.3285 3.36415 27.3285H14.6128C14.986 27.3285 15.2875 27.0271 15.2875 26.6539C15.2827 23.874 13.4549 21.4193 10.7948 20.6253H10.7946ZM4.08665 25.9793C4.32589 24.2759 5.45505 22.7927 7.03876 22.1085L8.38804 24.7592C8.63685 25.2521 9.34021 25.2521 9.58899 24.7592L10.9383 22.1085C12.522 22.7879 13.6512 24.276 13.8904 25.9793H4.08665Z" fill="#8E8EA1"/>
</svg>
