<svg width="30" height="30" viewBox="0 0 30 30" fill="none" xmlns="http://www.w3.org/2000/svg">
<path d="M20.397 3.25887C20.2289 3.09192 20.0011 2.99881 19.7641 3.00001H11.767C10.9802 3.00382 10.2231 3.3008 9.64337 3.83255C9.06367 4.36448 8.70285 5.0931 8.63145 5.87669H7.16424C6.32508 5.87669 5.52022 6.20999 4.92665 6.80354C4.33328 7.39691 4 8.20176 4 9.04093V23.1942C4 24.0334 4.3333 24.8382 4.92665 25.4316C5.52022 26.0251 6.32508 26.3584 7.16424 26.3584H17.2326C18.0194 26.3546 18.7765 26.0576 19.3562 25.5259C19.9359 24.994 20.2967 24.2653 20.3681 23.4818H21.8353C22.6745 23.4818 23.4794 23.1485 24.0729 22.5549C24.6663 21.9615 24.9996 21.1567 24.9996 20.3175V8.32176C25.007 8.092 24.9123 7.87088 24.7407 7.71776L20.397 3.25887ZM20.5985 5.93407L22.2957 7.66018H20.886C20.8072 7.66961 20.7285 7.64232 20.6723 7.58614C20.6164 7.53016 20.5891 7.4513 20.5983 7.37264L20.5985 5.93407ZM17.2328 24.6325H7.16439L7.16419 24.6327C6.78273 24.6327 6.41692 24.481 6.14723 24.2113C5.87735 23.9416 5.72585 23.5758 5.72585 23.1943V9.04108C5.72585 8.65962 5.87735 8.29381 6.14723 8.02412C6.41692 7.75444 6.78272 7.60274 7.16419 7.60274H8.60253V20.3177C8.60253 21.1568 8.93603 21.9617 9.52939 22.555C10.1228 23.1486 10.9276 23.4819 11.767 23.4819H18.6422C18.5758 23.8068 18.3994 24.0987 18.1426 24.3084C17.8855 24.5181 17.5643 24.6327 17.2326 24.6327L17.2328 24.6325ZM21.8356 21.7558H11.7672L11.767 21.756C11.3855 21.756 11.0197 21.6043 10.7498 21.3346C10.4801 21.0649 10.3286 20.6991 10.3286 20.3177V6.1644C10.3286 5.78295 10.4801 5.41714 10.7498 5.14745C11.0197 4.87776 11.3855 4.72606 11.767 4.72606H18.8724V7.37276C18.8724 7.90674 19.0845 8.41899 19.4621 8.79666C19.8397 9.17411 20.3518 9.38638 20.886 9.38638H23.2736V20.3178C23.2736 20.6992 23.1221 21.065 22.8522 21.3347C22.5826 21.6044 22.2168 21.7561 21.8353 21.7561L21.8356 21.7558Z" fill="#8E8EA1"/>
<path d="M20.4834 11.7672H18.6711V13.2919L17.1178 14.9603L15.2767 13.6945C15.1095 13.5836 14.9089 13.5346 14.7094 13.5555C14.51 13.5765 14.3239 13.6664 14.1835 13.8095L11.4794 16.4561L12.7162 17.6929L14.9025 15.5354L16.7722 16.8012L16.7724 16.8014C16.9458 16.9094 17.15 16.9565 17.3531 16.9359C17.5562 16.915 17.7466 16.8271 17.8943 16.6862L19.9942 14.4138L21.2887 14.4713L21.3463 12.6303H21.3465C21.3699 12.3953 21.2853 12.1623 21.1163 11.9974C20.9329 11.8591 20.7126 11.7791 20.4834 11.7672L20.4834 11.7672Z" fill="#8E8EA1"/>
</svg>
