<svg width="76" height="86" viewBox="0 0 76 86" fill="none" xmlns="http://www.w3.org/2000/svg">
<path d="M69.7831 30.7461C70.8757 30.7491 71.9492 30.4584 72.8904 29.9034C75.0685 28.6449 76.2747 26.1989 75.9467 23.7049C75.6187 21.2108 73.8221 19.1594 71.393 18.5065C69.794 18.0662 68.0844 18.2903 66.653 19.1276C65.7153 19.6737 64.9303 20.4461 64.3692 21.3741C64.2652 21.5537 64.1709 21.7387 64.088 21.9286V21.973C64.058 22.0445 64.0244 22.1154 63.9985 22.1868C63.9721 22.2577 63.9571 22.2878 63.9385 22.3478C63.9198 22.4079 63.8862 22.486 63.8634 22.5611C63.8412 22.6362 63.7961 22.7671 63.7661 22.8794C63.736 22.9918 63.736 22.9918 63.7252 23.044C63.7138 23.0963 63.6988 23.1491 63.6874 23.2014V23.2422C63.6856 23.2639 63.6856 23.2849 63.6874 23.3059V23.3696C63.6874 23.4483 63.6573 23.542 63.6429 23.6393V23.7516C63.6429 23.8453 63.6201 23.9354 63.6129 24.0327C63.5678 24.5932 63.6003 25.1578 63.7102 25.7098C63.7601 25.9765 63.8291 26.239 63.9162 26.4961C64.0039 26.7526 64.1091 27.0025 64.2304 27.2451C64.2869 27.3683 64.3541 27.4956 64.425 27.6194C64.556 27.8476 64.7025 28.0663 64.8635 28.2747C64.9266 28.3606 65.0095 28.4615 65.0918 28.5588C65.1741 28.6562 65.2678 28.7541 65.3573 28.8472C65.4474 28.9409 65.5033 28.9931 65.5898 29.0682C65.6144 29.0971 65.642 29.1235 65.672 29.1469C65.7321 29.1992 65.7916 29.252 65.8553 29.3007C65.9448 29.3782 66.0385 29.4509 66.1364 29.5175C66.2169 29.5818 66.3022 29.6407 66.391 29.6935L66.4319 29.72C66.5106 29.7722 66.5893 29.8209 66.6716 29.8659C66.8193 29.9554 66.9719 30.0365 67.1287 30.1092L67.4392 30.248L67.5816 30.3038C67.6753 30.3411 67.7684 30.3711 67.8699 30.4047C68.0315 30.4606 68.1967 30.5069 68.3637 30.5435L68.5625 30.5922H68.7085C68.8208 30.6144 68.9295 30.6294 69.0419 30.6444C69.2863 30.6925 69.5338 30.7261 69.7831 30.7459L69.7831 30.7461ZM69.7603 20.1615C71.3239 20.1633 72.7684 20.9959 73.553 22.348C74.7447 24.4318 74.0263 27.0868 71.9468 28.2857C71.2915 28.6732 70.5442 28.8762 69.7832 28.8738C69.5964 28.8744 69.4102 28.8618 69.2252 28.8366C69.1314 28.8366 69.0419 28.8137 68.9518 28.7951H68.9068L68.7386 28.7543C68.6257 28.7296 68.5145 28.6984 68.4052 28.6606C68.3229 28.6341 68.2514 28.6119 68.1806 28.5819H68.1391L68.0947 28.5633C68.0178 28.5332 67.9427 28.4996 67.87 28.4617C67.7625 28.4143 67.6586 28.359 67.5589 28.2972L67.488 28.2599L67.4129 28.2113C67.3793 28.1866 67.3444 28.1638 67.3084 28.144C67.2621 28.117 67.2183 28.0869 67.1774 28.0539L67.0123 27.9301L66.9672 27.8893C66.93 27.8623 66.8951 27.8322 66.8627 27.7992L66.799 27.7433H66.7768C66.7281 27.6983 66.6795 27.6532 66.6344 27.6046C66.5894 27.5559 66.5107 27.4772 66.4656 27.4214L66.432 27.3835C66.3833 27.3277 66.3347 27.2676 66.2896 27.2039C66.1779 27.0615 66.077 26.9114 65.9863 26.7546C65.9376 26.6687 65.8932 26.5786 65.8481 26.4891C65.7634 26.3113 65.6895 26.1287 65.6271 25.9425C65.5664 25.7623 65.5177 25.5784 65.4811 25.3916C65.406 24.9994 65.3844 24.5994 65.4174 24.2011C65.4138 24.1536 65.4138 24.1062 65.4174 24.0587C65.4192 24.0455 65.4192 24.0311 65.4174 24.0179V23.9092C65.4174 23.8677 65.4174 23.7968 65.4475 23.7295V23.6509C65.4451 23.631 65.4451 23.6106 65.4475 23.5908C65.4565 23.5602 65.4643 23.5289 65.4697 23.4971V23.4226V23.3775C65.4859 23.3103 65.5057 23.2442 65.5298 23.1793L65.5712 23.052C65.579 23.0364 65.585 23.0201 65.5898 23.0033L65.612 22.9396C65.6457 22.861 65.6721 22.7973 65.7021 22.7372L65.7244 22.6814C65.7706 22.5744 65.8235 22.4705 65.8817 22.3702C66.301 21.6878 66.8921 21.1274 67.5966 20.7454C68.2538 20.3628 69.0004 20.1616 69.7603 20.1616L69.7603 20.1615Z" fill="#3E71DE"/>
<path d="M6.29862 30.7461C6.56773 30.7455 6.83683 30.7274 7.10354 30.6932L7.44473 30.6409H7.51561C7.64296 30.6145 7.77391 30.5809 7.88984 30.5472C8.01658 30.519 8.14152 30.4842 8.26466 30.4427C8.52176 30.358 8.77164 30.2541 9.01311 30.1316C9.16689 30.0655 9.31465 29.9862 9.45522 29.8961C9.5315 29.8571 9.60539 29.8132 9.67567 29.7646L9.7958 29.6865L9.99404 29.5477C10.0877 29.4804 10.1851 29.4054 10.2824 29.3231L10.4512 29.1807C10.4974 29.1423 10.5413 29.1008 10.5821 29.057C10.6422 29.0011 10.7059 28.941 10.7653 28.8774L10.814 28.8251C10.8819 28.7542 10.9449 28.6863 11.0014 28.6191C11.0428 28.5758 11.0819 28.5296 11.1173 28.4809C11.1738 28.413 11.2297 28.3458 11.2783 28.2749C11.4351 28.0695 11.5775 27.8544 11.7054 27.631C12.3367 26.5341 12.619 25.2714 12.5139 24.01C12.5097 23.9259 12.5007 23.8424 12.4875 23.7595V23.6208L12.4538 23.4039C12.3956 23.0856 12.3133 22.7726 12.207 22.4675C12.1769 22.378 12.1361 22.2729 12.0982 22.1719L12.0724 22.1119L12.0424 22.0482L11.9859 21.9172C11.9066 21.7358 11.8165 21.5598 11.7162 21.3892C11.1558 20.4618 10.3719 19.6893 9.43664 19.1427C7.50969 17.9834 5.10758 17.9534 3.15233 19.0635C1.19647 20.1735 -0.00851154 22.2518 -5.43594e-05 24.5002C0.00775433 26.7491 1.22775 28.8185 3.19139 29.9147C4.13566 30.4613 5.20784 30.7485 6.29871 30.7461L6.29862 30.7461ZM7.18222 28.7879H7.12997C7.03986 28.7879 6.95036 28.8173 6.85666 28.8287C5.91359 28.9495 4.95677 28.7561 4.135 28.2785C2.72701 27.5313 1.83976 26.0752 1.82177 24.4817C1.80375 22.8881 2.65792 21.4116 4.04843 20.6332C5.43841 19.8547 7.14314 19.8973 8.49282 20.7455C9.15477 21.1305 9.70859 21.6765 10.1027 22.333C10.1706 22.446 10.2306 22.5637 10.2823 22.6851L10.3237 22.771C10.3237 22.8046 10.3496 22.8346 10.3646 22.8683L10.4361 23.0629C10.5112 23.2749 10.5688 23.493 10.6079 23.7146L10.6307 23.8456C10.6289 23.8666 10.6289 23.8882 10.6307 23.9092V23.9465C10.6289 23.9681 10.6289 23.9891 10.6307 24.0102C10.6343 24.0492 10.6343 24.0876 10.6307 24.1261C10.7094 25.0169 10.5118 25.9096 10.0655 26.6838C9.97776 26.8424 9.87864 26.995 9.76931 27.1404C9.7597 27.1482 9.75189 27.159 9.74708 27.1704C9.71885 27.2082 9.68942 27.2443 9.65698 27.2791L9.60472 27.3464C9.59391 27.3542 9.5849 27.3644 9.57829 27.3764C9.52964 27.4323 9.48098 27.4809 9.43233 27.5338C9.42332 27.5446 9.4137 27.5542 9.40229 27.5632C9.36805 27.6017 9.33201 27.6377 9.29417 27.672L9.22629 27.7356C9.16322 27.7957 9.11817 27.8329 9.07672 27.8666L9.03588 27.9002C8.98722 27.9453 8.93436 27.9831 8.8857 28.0203L8.75476 28.1062L8.6947 28.1477L8.74335 28.1213C8.70611 28.1417 8.67007 28.1639 8.63523 28.1885C8.6124 28.1885 8.59739 28.215 8.57876 28.2264C8.54633 28.2396 8.51509 28.2558 8.48506 28.275C8.39796 28.3333 8.30484 28.3832 8.20813 28.4246C8.03094 28.5135 7.84712 28.5892 7.65792 28.6493L7.40324 28.7243L7.18222 28.7879Z" fill="#3E71DE"/>
<path d="M38.0409 12.43H38.4379C38.552 12.4264 38.6656 12.4168 38.7785 12.4005C38.8854 12.3909 38.9917 12.3747 39.0968 12.3519H39.2242C39.3089 12.3375 39.3924 12.3189 39.4747 12.2954L39.587 12.269L39.6807 12.2468L39.8717 12.1909C39.9654 12.1645 40.0627 12.1308 40.1522 12.0972L40.3883 12.0071L40.5979 11.9176L40.658 11.8834C40.7367 11.8497 40.8154 11.8125 40.8899 11.771L40.9836 11.7224C41.0785 11.6773 41.1698 11.6245 41.2569 11.5656C41.4617 11.4425 41.6581 11.3061 41.845 11.1571C42.1321 10.9331 42.3982 10.6826 42.6385 10.4087C42.7021 10.3372 42.7736 10.2513 42.8409 10.1648L42.9004 10.0903C42.9346 10.0489 42.964 10.008 42.9941 9.96299L43.0319 9.91433L43.0619 9.87709C43.1779 9.70829 43.2824 9.54371 43.3947 9.34489C43.9702 8.40843 44.2723 7.32967 44.2675 6.23034C44.2675 2.78901 41.4779 0 38.0372 0C34.5965 0 31.8068 2.78901 31.8068 6.23034C31.802 7.32958 32.1042 8.4084 32.679 9.34489C32.7764 9.52029 32.8821 9.69029 32.9974 9.85427L33.0761 9.96299L33.1734 10.0903L33.2407 10.1762C33.3007 10.2513 33.3716 10.3336 33.4431 10.4159C33.6822 10.6898 33.9465 10.9403 34.233 11.165C34.4186 11.3121 34.6138 11.4473 34.8169 11.5692C34.9052 11.6281 34.9983 11.6809 35.0944 11.7266L35.1839 11.7752C35.259 11.8161 35.3377 11.8539 35.4122 11.8876H35.4464C35.5509 11.9362 35.6296 11.9699 35.7005 11.9957C35.772 12.0221 35.8428 12.0558 35.9215 12.0822C36.0002 12.108 36.1089 12.1495 36.2026 12.1759L36.3931 12.2318H36.4567L36.5991 12.2654C36.6916 12.2912 36.7853 12.3111 36.8802 12.3255H36.9775C37.082 12.3483 37.1884 12.3645 37.2959 12.3741C37.419 12.3741 37.5428 12.4042 37.6701 12.4078C37.7974 12.4114 37.9062 12.43 38.0407 12.43L38.0409 12.43ZM38.6289 10.521H38.5574C38.4854 10.5324 38.4133 10.5396 38.3406 10.5432C38.1508 10.5565 37.9609 10.5565 37.7711 10.5432L37.5243 10.5168H37.4456C37.4167 10.521 37.3879 10.521 37.3597 10.5168C37.3188 10.506 37.2774 10.4982 37.2359 10.4946H37.1759C37.1404 10.491 37.105 10.4832 37.0713 10.4724H37.0035L36.8839 10.4423L36.7788 10.4123H36.7416L36.5956 10.3636H36.5433L36.4082 10.3114L36.27 10.2513C36.246 10.2345 36.2196 10.2219 36.1913 10.2135L36.079 10.1576L36.0075 10.124L35.9439 10.0867C35.9072 10.0699 35.8724 10.0501 35.8393 10.0267L35.7979 10.0002C35.6573 9.91734 35.5222 9.82483 35.3936 9.72331C35.1948 9.54732 35.014 9.35148 34.8548 9.13944L34.7047 8.96345L34.686 8.94062C34.6782 8.92681 34.668 8.91419 34.656 8.90338C34.6338 8.87335 34.6152 8.84331 34.5923 8.81748L34.5178 8.71236C34.4578 8.63007 34.3905 8.51775 34.304 8.36817L34.2818 8.32672C33.8841 7.68519 33.6763 6.94395 33.6829 6.18895C33.6829 3.78206 35.634 1.83097 38.0409 1.83097C40.4478 1.83097 42.3989 3.78206 42.3989 6.18895C42.4055 6.94401 42.1976 7.68525 41.8 8.32672L41.785 8.3904C41.7171 8.51954 41.642 8.64448 41.5603 8.76462L41.493 8.85833L41.433 8.94062C41.421 8.95144 41.4107 8.96405 41.4029 8.97847C41.3579 9.03793 41.3092 9.0944 41.2606 9.15026C41.0966 9.33828 40.9146 9.51006 40.7182 9.66324C40.5884 9.76596 40.4521 9.86026 40.3097 9.94436L40.2689 9.97019L40.1824 10.023L40.1001 10.0639L40.0292 10.1017C39.9931 10.1234 39.9553 10.142 39.9169 10.1576C39.8772 10.172 39.8394 10.1906 39.8045 10.2135L39.7144 10.2513L39.5649 10.3072H39.5126L39.366 10.3558H39.3288L39.2243 10.3859L39.1041 10.4159H39.0369C39.0026 10.4267 38.9678 10.4345 38.9317 10.4381H38.8945C38.8452 10.4435 38.7966 10.4525 38.7485 10.4645L38.6289 10.521ZM34.7046 9.0007V9.02292V9.0007Z" fill="#3E71DE"/>
<path d="M69.78 67.3861C72.5917 67.3807 75.0509 65.4897 75.7784 62.7728C76.5058 60.0565 75.3207 57.1894 72.8873 55.7796C71.9466 55.2258 70.875 54.9333 69.7835 54.9333C69.5781 54.9326 69.3732 54.9441 69.1696 54.9669C69.1348 54.9633 69.0993 54.9633 69.0645 54.9669H68.9257L68.7425 54.9891L68.5215 55.0342C68.28 55.0846 68.0409 55.1483 67.8067 55.2252C67.7021 55.2564 67.6 55.2925 67.4997 55.3339C67.194 55.4504 66.8996 55.5946 66.6197 55.7646C66.5404 55.8036 66.4641 55.8487 66.3914 55.8992L66.2713 55.9778L66.0731 56.1166C65.9794 56.1839 65.8821 56.2584 65.7847 56.3413L65.6159 56.483C65.5697 56.5215 65.5264 56.5629 65.485 56.6068C65.4249 56.6632 65.3619 56.7227 65.3054 56.7864L65.2495 56.8428C65.1816 56.9137 65.1222 56.9774 65.0657 57.0447C65.0195 57.0915 64.9768 57.1414 64.9384 57.1948C64.8933 57.2507 64.8375 57.318 64.7888 57.3894C64.6326 57.5943 64.4897 57.8093 64.3617 58.0334C63.731 59.1248 63.4487 60.3826 63.5532 61.6386C63.5562 61.7281 63.5652 61.8164 63.5796 61.9047V62.0435C63.5796 62.0879 63.6019 62.1967 63.6169 62.2718C63.6733 62.5859 63.755 62.8953 63.8602 63.1962C63.8902 63.2863 63.931 63.3908 63.9689 63.4923C63.9755 63.5128 63.9839 63.5332 63.9947 63.5518L64.0247 63.6155L64.0812 63.747C64.1611 63.9272 64.2512 64.1038 64.3509 64.2744C64.9113 65.2019 65.6952 65.9744 66.6311 66.5209C67.585 67.0844 68.6717 67.3829 69.7799 67.3859L69.78 67.3861ZM69.78 56.7942C70.5404 56.7966 71.2877 57.0002 71.9436 57.3859C73.3191 58.1494 74.1752 59.5952 74.1841 61.1684C74.1925 62.7416 73.3521 64.197 71.9856 64.9756C70.6184 65.7547 68.9384 65.7355 67.5891 64.9263C66.9272 64.5413 66.3734 63.9953 65.9793 63.3388C65.9126 63.2264 65.8525 63.1099 65.7997 62.9904L65.7582 62.9009C65.7582 62.8672 65.7324 62.8372 65.7174 62.8036L65.6459 62.609C65.5708 62.3969 65.5131 62.1789 65.4741 61.9572C65.4741 61.9164 65.4741 61.8749 65.4513 61.8263C65.4531 61.8052 65.4531 61.7836 65.4513 61.7626V61.7253C65.4531 61.7037 65.4531 61.6827 65.4513 61.6617C65.4477 61.6226 65.4477 61.5842 65.4513 61.5457C65.4495 61.5355 65.4495 61.5253 65.4513 61.5157C65.3792 60.6345 65.5774 59.7527 66.0207 58.988C66.1084 58.8294 66.2069 58.6768 66.3162 58.5314C66.3259 58.5236 66.3337 58.5128 66.3385 58.5014C66.3685 58.46 66.4021 58.4227 66.4322 58.3855L66.4694 58.3368C66.4838 58.3248 66.4964 58.311 66.5073 58.2954L66.6496 58.138L66.6833 58.1086L66.792 57.9998L66.8593 57.9362C66.9229 57.8761 66.9674 57.8389 67.0088 57.8052L67.0503 57.7716C67.0989 57.7265 67.1512 57.6887 67.1999 57.6514L67.3308 57.5655L67.3909 57.5241L67.3422 57.5505C67.3795 57.5301 67.4161 57.5079 67.4509 57.4833L67.5104 57.4454L67.5891 57.4046C67.7849 57.2832 67.9915 57.1817 68.2072 57.1012C68.2691 57.073 68.3327 57.0496 68.3982 57.0297C68.567 56.9733 68.7394 56.927 68.9148 56.8916L69.0758 56.8579H69.1545L69.3227 56.8351H69.405C69.5305 56.8147 69.6567 56.8009 69.7834 56.7943L69.78 56.7942Z" fill="#3E71DE"/>
<path d="M38.0408 85.7053C41.4809 85.7035 44.2687 82.915 44.2712 79.4755C44.276 78.3757 43.9738 77.2969 43.3984 76.3604C43.3017 76.185 43.1954 76.015 43.0806 75.851C42.7809 75.4293 42.1958 75.3302 41.7735 75.6299C41.3519 75.9297 41.2528 76.5147 41.5531 76.937C41.6348 77.0572 41.7099 77.1821 41.7777 77.3113L41.8 77.3521C42.1976 77.9942 42.4055 78.7355 42.3988 79.4899C42.3988 81.0475 41.5681 82.486 40.2202 83.2646C38.8716 84.0431 37.2102 84.0431 35.8616 83.2646C34.5136 82.4861 33.6829 81.0475 33.6829 79.4899C33.6763 78.7354 33.8841 77.9942 34.2818 77.3521L34.2968 77.2812C34.3647 77.1521 34.4397 77.0271 34.5214 76.907C34.7155 76.6337 34.7491 76.2781 34.6097 75.9741C34.4704 75.6696 34.179 75.4624 33.8457 75.4311C33.5123 75.3993 33.1879 75.5483 32.9939 75.821C32.8786 75.985 32.7722 76.155 32.6755 76.3304C32.1001 77.2668 31.7979 78.3462 31.8033 79.4455C31.7961 81.104 32.4503 82.6971 33.6209 83.8713C34.7917 85.0462 36.3823 85.7065 38.0407 85.7052L38.0408 85.7053Z" fill="#3E71DE"/>
<path d="M40.0323 75.4992C40.4822 75.5076 40.8739 75.194 40.9658 74.7537C41.0571 74.3134 40.8222 73.8701 40.4065 73.6983L40.1446 73.601C39.6617 73.4599 39.1535 73.726 38.9943 74.2035C38.8351 74.6811 39.082 75.1988 39.553 75.3754L39.6881 75.4283C39.7974 75.4733 39.914 75.4974 40.0323 75.4992V75.4992Z" fill="#3E71DE"/>
<path d="M36.0495 75.4992C36.178 75.501 36.3054 75.477 36.4237 75.4283L36.5589 75.3754C37.0298 75.1988 37.2761 74.681 37.1175 74.2035C36.9583 73.726 36.4501 73.4599 35.9672 73.601L35.7053 73.6983C35.289 73.8701 35.0547 74.3134 35.1461 74.7537C35.238 75.194 35.6296 75.5076 36.0795 75.4992L36.0495 75.4992Z" fill="#3E71DE"/>
<path d="M6.32485 67.3814C7.4157 67.382 8.48677 67.0925 9.42865 66.5428C10.3663 65.9968 11.1514 65.2243 11.7125 64.2963C11.8164 64.1167 11.9107 63.9317 11.9936 63.7419V63.6975C12.0237 63.626 12.0573 63.5551 12.0831 63.4836C12.1095 63.4127 12.1246 63.3827 12.1432 63.3226C12.1618 63.2626 12.1954 63.1845 12.2183 63.1094C12.2405 63.0343 12.2855 62.9034 12.3156 62.791C12.3456 62.6787 12.3456 62.6787 12.3564 62.6264C12.3678 62.5742 12.3943 62.4691 12.4093 62.3904V62.3009C12.4093 62.2222 12.4387 62.1285 12.4537 62.0312V61.9188C12.4537 61.8251 12.4766 61.735 12.4838 61.6377C12.5288 61.0773 12.4964 60.5126 12.3865 59.9607C12.3366 59.6927 12.2681 59.4285 12.1804 59.1708C12.0921 58.9143 11.9876 58.6644 11.8663 58.4217C11.8098 58.298 11.7425 58.1712 11.6717 58.0475C11.5407 57.8192 11.3941 57.6 11.2332 57.3921C11.1695 57.3062 11.0872 57.2047 11.0049 57.1074C10.9226 57.0101 10.8403 56.9206 10.7544 56.8341C10.6679 56.7482 10.5706 56.6545 10.4769 56.5686C10.3838 56.4821 10.3087 56.4184 10.2222 56.3511C10.1363 56.2839 10.0726 56.2316 9.98313 56.1601C9.92186 56.1133 9.85759 56.0694 9.79211 56.0292L9.6011 55.9018C9.40227 55.7775 9.19563 55.6646 8.983 55.5648C8.86226 55.5042 8.73671 55.4519 8.60877 55.4081C8.50786 55.3666 8.38051 55.318 8.23454 55.2729C8.08858 55.2279 8.00208 55.1984 7.87894 55.1642C7.7552 55.1306 7.67652 55.1119 7.5678 55.0897H7.53416L7.30589 55.0447C7.23561 55.0308 7.16413 55.0206 7.09266 55.0146L6.94249 54.9924H6.85298C6.64756 54.969 6.44151 54.9582 6.23488 54.9588C5.14164 54.9558 4.0682 55.2477 3.12756 55.8045C0.702532 57.2245 -0.47231 60.0922 0.260427 62.8054C0.992656 65.5182 3.45125 67.4048 6.26118 67.4114L6.32485 67.3814ZM10.26 63.0306C10.2137 63.137 10.1608 63.2409 10.1026 63.3412C9.70553 63.9983 9.14929 64.5443 8.48486 64.9288C6.39568 66.1241 3.73354 65.4063 2.52856 63.3226C1.3398 61.2394 2.05762 58.5874 4.13474 57.3884C4.79068 56.9998 5.53973 56.7955 6.30204 56.7967C6.45221 56.7967 6.58676 56.7967 6.70689 56.8154H6.77777L6.93154 56.8382H6.96518L7.21987 56.8868C7.29796 56.9012 7.37544 56.9199 7.45172 56.9427C7.53282 56.9619 7.61272 56.9853 7.69141 57.0142C7.79232 57.0478 7.88242 57.0815 7.96832 57.1187C8.0356 57.1427 8.10047 57.1716 8.16293 57.2046H8.20078C8.34974 57.2767 8.49452 57.3566 8.63507 57.4443L8.751 57.5194C8.77683 57.5404 8.80446 57.5596 8.83329 57.5752L8.87835 57.6052C8.94202 57.6539 9.00569 57.7026 9.06515 57.7554C9.12522 57.8077 9.20031 57.8677 9.25617 57.9164C9.31264 57.9651 9.36129 58.0101 9.41354 58.066L9.44358 58.0996C9.49764 58.1519 9.5487 58.2065 9.59735 58.2642L9.63099 58.302C9.67965 58.3579 9.7283 58.418 9.77335 58.4817C9.88448 58.624 9.98599 58.7742 10.0761 58.931C10.1248 59.0169 10.1698 59.107 10.2149 59.1965C10.2996 59.3743 10.3734 59.5569 10.4359 59.7431C10.4972 59.9245 10.5458 60.1095 10.5819 60.2975C10.657 60.6886 10.6786 61.0874 10.6456 61.4845C10.6492 61.5319 10.6492 61.5794 10.6456 61.6268C10.6438 61.6401 10.6438 61.6539 10.6456 61.6677V61.7764C10.6456 61.8179 10.6456 61.8887 10.6155 61.956C10.6131 61.9825 10.6131 62.0083 10.6155 62.0347V62.0948C10.6155 62.1206 10.6155 62.1657 10.5933 62.1885C10.5705 62.2107 10.5933 62.2407 10.5933 62.263V62.308C10.5771 62.3753 10.5573 62.4414 10.5332 62.5063L10.4918 62.6336C10.484 62.6492 10.478 62.6654 10.4732 62.6823L10.4509 62.7459C10.4173 62.8246 10.3909 62.8883 10.3608 62.9484L10.26 63.0306Z" fill="#3E71DE"/>
<path d="M33.3046 77.589C33.7953 77.5842 34.2531 77.3397 34.5288 76.9336L34.5552 76.8928C34.5816 76.8549 34.6117 76.8141 34.6453 76.7727C34.6573 76.7618 34.6669 76.7492 34.6747 76.7354H34.694C34.73 76.6813 34.7715 76.6315 34.8171 76.5858C34.9865 76.3894 35.1745 76.2098 35.3787 76.05C35.5085 75.9473 35.6448 75.8536 35.7872 75.7695L35.828 75.7431L35.9145 75.6908L35.9968 75.6458L36.0677 75.6121C36.0989 75.5935 36.1314 75.5773 36.165 75.5635C36.2053 75.5479 36.2443 75.5292 36.281 75.5076L36.3825 75.4626L36.532 75.4061H36.5843L36.7303 75.3574H36.7681L36.9255 75.3124H37.06C37.0943 75.3016 37.1291 75.2938 37.1646 75.2902H37.2024C37.2516 75.2854 37.3003 75.2763 37.3484 75.2637H37.7304C37.9196 75.2511 38.11 75.2511 38.2992 75.2637L38.5425 75.2866H38.6248C38.6536 75.2823 38.6825 75.2823 38.7113 75.2866C38.7516 75.2974 38.793 75.3052 38.8344 75.3088H38.8945C38.93 75.313 38.9654 75.3202 38.9996 75.3316H39.1228L39.2916 75.3803H39.3288L39.4748 75.4289H39.5276L39.6622 75.4812L39.7967 75.5413L39.8941 75.5857C39.9277 75.6001 39.9601 75.6163 39.9914 75.6344L40.0628 75.6686C40.0821 75.6824 40.1037 75.6938 40.1265 75.7022L40.231 75.7659L40.2725 75.7917C40.413 75.8752 40.5482 75.9677 40.6767 76.0686C40.872 76.2212 41.0528 76.3918 41.2162 76.578C41.2624 76.6255 41.3063 76.6753 41.3471 76.7282C41.3573 76.7456 41.3699 76.7624 41.3843 76.7769C41.3922 76.7907 41.4024 76.8033 41.4144 76.8141L41.5045 76.9336C41.5105 76.9474 41.5195 76.9607 41.5303 76.9715C41.97 77.6124 42.8272 77.8112 43.5035 77.428L65.2042 64.8852C65.8578 64.4918 66.1113 63.6694 65.7917 62.9762L65.7581 62.9012L65.7208 62.8111V62.7852C65.698 62.7252 65.6758 62.6687 65.6572 62.6092C65.5821 62.3972 65.5244 62.1791 65.4848 61.9575C65.4848 61.9166 65.4848 61.8752 65.4625 61.8265C65.4643 61.8055 65.4643 61.7839 65.4625 61.7629V61.7256C65.4643 61.704 65.4643 61.683 65.4625 61.662C65.4589 61.6229 65.4589 61.5845 65.4625 61.546C65.3838 60.6552 65.5809 59.7625 66.0278 58.9883C66.1155 58.8297 66.2146 58.6771 66.3233 58.5318L66.3684 58.4717L66.432 58.3894L66.4771 58.3371C66.4915 58.3251 66.5041 58.3113 66.5143 58.2957C66.5594 58.247 66.6008 58.1948 66.6495 58.1497L66.6867 58.1161C66.7126 58.0837 66.7414 58.0536 66.7726 58.026C66.8045 57.9996 66.8345 57.9707 66.8627 57.9401C66.8753 57.9323 66.8868 57.9221 66.8964 57.9101L66.9901 57.8314L67.0537 57.7791C67.1024 57.7341 67.1547 57.6968 67.2033 57.6596L67.3343 57.5731L67.3943 57.5322L67.3457 57.5581C67.3829 57.5382 67.4196 57.5154 67.4544 57.4908L67.5253 57.4457L67.5926 57.4121C67.7884 57.2914 67.995 57.1892 68.2107 57.1087C68.2767 57.0805 68.344 57.0553 68.4125 57.0343C68.5783 56.979 68.7471 56.9339 68.9183 56.8991L69.0792 56.8655H69.3976C70.1635 56.8054 70.7551 56.1663 70.7563 55.398V30.3204C70.7533 29.5533 70.1623 28.9166 69.3976 28.8566H69.2324C69.1501 28.8566 69.0714 28.8337 68.9933 28.8187H68.9147L68.8246 28.7965C68.7975 28.7875 68.7699 28.7797 68.7423 28.7743C68.6407 28.7508 68.541 28.7226 68.4425 28.6878C68.3662 28.6667 68.2912 28.6403 68.2179 28.6091H68.177L68.132 28.5905C68.0605 28.5634 67.9902 28.5322 67.9223 28.4967C67.81 28.4469 67.7013 28.3892 67.5968 28.3249L67.5253 28.2871L67.4508 28.2384L67.3721 28.1862L67.1919 28.0667L67.0501 27.9579L66.9787 27.8979C66.9498 27.8774 66.9234 27.8534 66.9 27.827L66.8363 27.7705H66.8141C66.7654 27.7255 66.7168 27.681 66.6717 27.6324L66.6417 27.5987C66.5918 27.5525 66.5456 27.502 66.5035 27.4485L66.4693 27.4113C66.4206 27.3548 66.372 27.2954 66.3275 27.2317C66.2158 27.0893 66.1143 26.9392 66.0242 26.7824C65.9755 26.6959 65.9305 26.6064 65.8854 26.5163C65.8007 26.3391 65.7268 26.1565 65.6644 25.9697C65.6037 25.7888 65.5544 25.6032 65.5184 25.4158C65.4433 25.0248 65.4217 24.6253 65.4547 24.2289C65.4511 24.1838 65.4511 24.1388 65.4547 24.0937V24.0451V23.9369C65.4547 23.8955 65.4547 23.8246 65.4848 23.7567L65.5148 23.615C65.5238 23.5849 65.5316 23.5555 65.537 23.5249V23.4726C65.537 23.4726 65.537 23.4197 65.5598 23.4053C65.5761 23.338 65.5959 23.2714 65.6199 23.2065C65.6211 23.1831 65.6211 23.159 65.6199 23.1356C65.6199 23.102 65.6493 23.0641 65.6608 23.0305L65.6836 22.9668L65.7473 22.8437C65.7473 22.8058 65.7767 22.7686 65.7959 22.7313C65.8157 22.6941 65.8319 22.6551 65.8446 22.6148C66.1077 21.9366 65.8452 21.1678 65.2229 20.7918L43.5299 8.28255C42.8577 7.89331 41.9987 8.09333 41.568 8.73968L41.5416 8.78052L41.4515 8.90066C41.4394 8.91147 41.4298 8.92408 41.4214 8.9379C41.3854 8.99196 41.3439 9.04182 41.2983 9.08747C41.1289 9.28389 40.9409 9.4635 40.7367 9.62328C40.6069 9.726 40.4705 9.8197 40.3282 9.9038L40.2874 9.93023L40.2009 9.98249L40.1186 10.0239L40.0477 10.0612C40.0164 10.0798 39.984 10.096 39.9504 10.1098C39.9059 10.1273 39.8633 10.1483 39.823 10.1735L39.7329 10.2107L39.5834 10.2672H39.5311L39.3851 10.3159H39.3473C39.2962 10.3339 39.2434 10.3489 39.1905 10.3609H39.0554C39.0211 10.3717 38.9863 10.3795 38.9508 10.3831H38.913C38.8637 10.388 38.8151 10.397 38.767 10.4096H38.385C38.1958 10.4222 38.0054 10.4222 37.8161 10.4096L37.5729 10.3867H37.4906C37.4618 10.391 37.4329 10.391 37.4041 10.3867C37.3638 10.3759 37.3224 10.3681 37.2809 10.3645H37.2209C37.1854 10.3603 37.15 10.3531 37.1158 10.3417H36.9926C36.935 10.3321 36.8785 10.3171 36.8238 10.2972H36.7866L36.6406 10.2486H36.5884L36.4532 10.1957L36.315 10.1363L36.2213 10.0912L36.124 10.0426L36.0525 10.0089L35.9889 9.97108C35.9522 9.95486 35.9168 9.93503 35.8843 9.91161L35.8429 9.88518C35.7023 9.80168 35.5672 9.70918 35.4386 9.60826C35.2296 9.4713 35.0338 9.31452 34.8548 9.14032C34.8079 9.09287 34.7641 9.04301 34.7238 8.99015C34.7136 8.97213 34.701 8.95591 34.686 8.9415C34.6782 8.92768 34.668 8.91507 34.656 8.90425L34.5664 8.78412C34.5598 8.7703 34.5508 8.75769 34.54 8.74687C34.1009 8.10534 33.2437 7.90713 32.5668 8.29035L10.8845 20.7918C10.2304 21.1852 9.97751 22.0082 10.2965 22.7014L10.3301 22.7758L10.368 22.8659V22.9032C10.368 22.956 10.4088 23.0119 10.4274 23.0684C10.5031 23.2804 10.5608 23.4979 10.5998 23.7195L10.622 23.8505C10.6208 23.8721 10.6208 23.8931 10.622 23.9141V23.952C10.6202 23.973 10.6202 23.994 10.622 24.015C10.6262 24.0541 10.6262 24.0925 10.622 24.1316C10.7007 25.0218 10.5037 25.9144 10.0568 26.6887C9.9691 26.8479 9.8706 27.0004 9.76126 27.1452L9.72342 27.1903C9.7072 27.2155 9.68858 27.2395 9.66756 27.2618C9.64173 27.29 9.61831 27.32 9.59668 27.3513C9.58587 27.3597 9.57685 27.3699 9.57025 27.3813C9.5252 27.4335 9.48435 27.4786 9.4357 27.5273L9.40145 27.5573C9.37623 27.5897 9.3474 27.6198 9.31556 27.6474C9.28372 27.6738 9.25369 27.7027 9.22546 27.7333C9.21284 27.7411 9.20143 27.7513 9.19182 27.7633L9.09871 27.842L9.03504 27.8943C8.98639 27.9393 8.93353 27.9766 8.88487 28.0138L8.75392 28.1003L8.69385 28.1412L8.74251 28.1153C8.70527 28.1351 8.66922 28.158 8.63438 28.1826L8.5629 28.2234L8.48421 28.2685C8.39711 28.3268 8.30401 28.3772 8.2073 28.4187C8.03011 28.5076 7.84628 28.5827 7.65707 28.6433C7.57358 28.6733 7.48888 28.6986 7.40239 28.7178H7.34653C7.28346 28.737 7.21979 28.752 7.15551 28.7629H7.09544C7.01675 28.7629 6.93807 28.7929 6.85577 28.8001H6.69118C5.92651 28.8608 5.33545 29.4969 5.33185 30.264V55.2939C5.33366 56.0627 5.92473 56.7013 6.69118 56.7619H7.00173L7.15551 56.7878H7.21137L7.40239 56.8364H7.44384C7.51953 56.8544 7.59461 56.8773 7.66849 56.9043C7.7694 56.9379 7.8589 56.9716 7.9454 57.0088C8.01688 57.0365 8.08657 57.0677 8.15505 57.1025C8.31242 57.1746 8.46499 57.2575 8.61157 57.3494L8.69807 57.4023C8.71849 57.4203 8.74131 57.4365 8.76534 57.4509L8.87407 57.5254C8.93233 57.5675 8.9888 57.6125 9.04227 57.6606L9.09092 57.6978C9.13357 57.7296 9.17382 57.7645 9.21106 57.8023L9.26332 57.8438C9.30837 57.8834 9.35102 57.9261 9.39066 57.9711L9.43571 58.0198C9.48557 58.066 9.53182 58.1159 9.57387 58.1693L9.60751 58.2072C9.65617 58.2631 9.70482 58.3231 9.74987 58.3868C9.8616 58.5292 9.96311 58.6793 10.0532 58.8361C10.1019 58.922 10.1469 59.0121 10.192 59.1016C10.2761 59.2794 10.35 59.462 10.4124 59.6482C10.4737 59.8297 10.5224 60.0147 10.5584 60.2027C10.6341 60.5937 10.6557 60.9926 10.6221 61.3896C10.6257 61.4341 10.6257 61.4791 10.6221 61.5242V61.5728V61.6816C10.6221 61.7224 10.6221 61.7939 10.5926 61.8612C10.5902 61.8876 10.5902 61.9134 10.5926 61.9399C10.5926 61.9663 10.5926 62.0071 10.5662 62.0486V62.1459C10.5662 62.1459 10.5662 62.1982 10.544 62.2132C10.5278 62.2805 10.5079 62.3465 10.4839 62.4114C10.4821 62.4354 10.4821 62.4589 10.4839 62.4829C10.4839 62.5165 10.4539 62.5538 10.4425 62.5874L10.4202 62.6511L10.3974 62.7075C10.3974 62.7448 10.368 62.782 10.3488 62.8199C10.3289 62.8565 10.3127 62.8956 10.3001 62.9358C10.037 63.614 10.2995 64.3829 10.9218 64.7588L32.6148 77.2681C32.8125 77.4345 33.0497 77.5456 33.3038 77.59L33.3046 77.589ZM33.2301 75.5484L33.1887 75.597L12.1215 63.429L12.1552 63.3353C12.1882 63.2542 12.217 63.1719 12.2411 63.0884C12.2711 62.9947 12.3011 62.9046 12.3233 62.8109C12.3462 62.74 12.3648 62.6673 12.3798 62.594C12.3798 62.5226 12.4134 62.4517 12.4285 62.3802V62.2907C12.4285 62.212 12.4585 62.1183 12.4735 62.021V61.9123C12.4735 61.8228 12.4957 61.7255 12.5029 61.6281C12.5486 61.0671 12.5156 60.5025 12.4056 59.9505C12.3558 59.6825 12.2873 59.4188 12.2002 59.1606C12.1119 58.9041 12.0068 58.6542 11.8854 58.4115C11.829 58.2884 11.7617 58.161 11.6908 58.0373C11.5599 57.809 11.4139 57.5904 11.2529 57.3819C11.1893 57.296 11.1106 57.1951 11.0241 57.0978C10.9442 56.9999 10.8577 56.9074 10.7658 56.8203C10.6805 56.7242 10.5874 56.6341 10.4889 56.5512C10.4066 56.4761 10.3279 56.4052 10.2456 56.3415L10.0023 56.1505L9.94945 56.1127L9.84132 56.0418C9.77465 55.9919 9.70617 55.9457 9.6353 55.903C9.42626 55.7703 9.20882 55.6514 8.98356 55.5474C8.89406 55.5024 8.78532 55.4537 8.6766 55.4093C8.56788 55.3642 8.41831 55.3078 8.28376 55.2627C8.1486 55.2183 8.0663 55.1918 7.94677 55.1582C7.82664 55.1246 7.7071 55.0945 7.57195 55.0723L7.28003 55.0158H7.19052V30.6748C7.2614 30.6748 7.33649 30.6526 7.40376 30.6412H7.46383C7.59838 30.6148 7.72572 30.5847 7.85668 30.5475C7.98343 30.5168 8.10836 30.479 8.23151 30.4352C8.4886 30.3541 8.73908 30.2526 8.97996 30.1318C9.13553 30.0633 9.2857 29.9834 9.42927 29.8921C9.50315 29.8543 9.57404 29.8116 9.64251 29.7648L9.76265 29.6867L9.96088 29.5479C10.057 29.4807 10.1495 29.408 10.2378 29.3305C10.3111 29.2746 10.3814 29.2152 10.4474 29.1509L10.5411 29.065C10.6084 29.0049 10.6685 28.9412 10.7322 28.8776L10.77 28.8403C10.8397 28.77 10.9058 28.6962 10.9682 28.6193C11.0085 28.5784 11.0463 28.5346 11.0806 28.4883C11.1256 28.4361 11.1665 28.3796 11.2115 28.3237L11.2379 28.2901C11.3959 28.0793 11.5413 27.8594 11.6722 27.6311C12.3036 26.5343 12.5859 25.2716 12.4807 24.0102C12.4765 23.9261 12.4675 23.8426 12.4543 23.7597V23.621L12.4207 23.4041C12.3624 23.0858 12.2801 22.7728 12.1738 22.4677C12.1516 22.4004 12.1215 22.3253 12.0915 22.2466L33.1971 10.0823L33.2385 10.1309C33.3094 10.2264 33.3857 10.3177 33.4668 10.4042C33.8608 10.8433 34.3174 11.2217 34.8225 11.5275C34.9108 11.587 35.0033 11.6392 35.0995 11.6849L35.1853 11.7335L35.425 11.8495H35.4515C35.556 11.8981 35.6347 11.9317 35.7061 11.9582C35.777 11.9846 35.8479 12.0182 35.9266 12.0441C36.0053 12.0705 36.114 12.112 36.2077 12.1378C36.3014 12.1642 36.4023 12.1978 36.5032 12.2201L36.6084 12.2429C36.6991 12.2687 36.7916 12.2892 36.8853 12.303H36.9826C37.0877 12.3258 37.194 12.342 37.3009 12.3516C37.4205 12.3516 37.5514 12.3811 37.6752 12.3853C37.9245 12.4009 38.1749 12.4009 38.4242 12.3853C38.5396 12.3817 38.6543 12.3714 38.7684 12.3552C38.8765 12.3456 38.9841 12.3294 39.0904 12.3066H39.2141C39.2988 12.2928 39.3823 12.2735 39.4652 12.2501L39.5775 12.2243C39.667 12.2051 39.7643 12.1756 39.8617 12.1456C39.959 12.1156 40.0527 12.0855 40.1428 12.0519L40.3783 11.9618L40.5879 11.8723L40.6444 11.8422C40.7248 11.808 40.8041 11.769 40.8804 11.7263L40.9735 11.6777C41.069 11.632 41.1603 11.5797 41.2468 11.5203C41.4517 11.3965 41.6475 11.2602 41.8349 11.1118C42.1226 10.8878 42.3881 10.6373 42.6284 10.3634C42.7011 10.2865 42.7684 10.2048 42.8308 10.1201L42.8723 10.0714L63.9625 22.243L63.9289 22.3367C63.8958 22.4178 63.867 22.5001 63.843 22.5836C63.8129 22.6773 63.7829 22.7674 63.7607 22.8611C63.7396 22.926 63.7222 22.9921 63.7084 23.0594L63.6742 23.1981V23.239V23.3177V23.3813C63.6742 23.46 63.6447 23.5537 63.6297 23.651V23.7598C63.6297 23.8493 63.6069 23.9466 63.5997 24.0439C63.5546 24.6049 63.5871 25.1696 63.697 25.7216C63.7469 25.9895 63.8153 26.2532 63.903 26.5115C63.9913 26.768 64.0958 27.0178 64.2172 27.2605C64.2736 27.3837 64.3409 27.511 64.4118 27.6347C64.5427 27.863 64.6893 28.0816 64.8503 28.2901C64.914 28.376 64.9921 28.4769 65.0786 28.5742C65.1615 28.6745 65.2504 28.7694 65.3441 28.8589C65.4192 28.9376 65.4942 29.0127 65.5765 29.0836C65.6 29.1112 65.6264 29.1365 65.6552 29.1587C65.7189 29.2181 65.7862 29.2746 65.8535 29.3269C65.9207 29.3791 66.0295 29.4692 66.1232 29.5329C66.2013 29.5918 66.2824 29.647 66.3664 29.6975C66.3821 29.7119 66.4001 29.7245 66.4187 29.7353C66.4974 29.7876 66.5761 29.8362 66.6584 29.8813C66.8061 29.9708 66.9587 30.0519 67.1155 30.1246L67.426 30.2627L67.5684 30.3192C67.6693 30.3564 67.778 30.3979 67.879 30.4279C67.9799 30.458 68.1559 30.5138 68.3132 30.5511C68.4226 30.5841 68.5337 30.6087 68.6466 30.6261H68.6875C68.7571 30.6412 68.8268 30.6526 68.8977 30.6598V54.9962H68.7926L68.5715 55.0412C68.3301 55.0911 68.091 55.1548 67.8567 55.2322C67.7702 55.2581 67.6579 55.2995 67.5498 55.3404C67.2416 55.4587 66.9443 55.6041 66.662 55.7747C66.5863 55.8143 66.5124 55.8581 66.4415 55.9062L66.3214 55.9843L66.1232 56.123C66.0271 56.1903 65.9345 56.263 65.8462 56.3405C65.773 56.3964 65.7027 56.4558 65.6366 56.5201L65.5429 56.606C65.4756 56.6661 65.4156 56.7297 65.3519 56.7934L65.314 56.8307C65.2432 56.9021 65.1795 56.9766 65.1158 57.0517C65.078 57.0902 65.0431 57.1316 65.0113 57.1755C64.9662 57.2277 64.9212 57.2836 64.8797 57.34L64.8461 57.3809C64.6881 57.5917 64.5427 57.8116 64.4118 58.0398C63.7805 59.1367 63.4982 60.3994 63.6033 61.6608C63.6075 61.7449 63.6165 61.8284 63.6297 61.9113V62.05C63.6297 62.0951 63.6519 62.2038 63.667 62.2783C63.7234 62.5924 63.8051 62.9018 63.9102 63.2033C63.9325 63.2706 63.9625 63.3493 63.9925 63.428L42.9208 75.5774L42.8793 75.5288C42.8085 75.4333 42.7322 75.342 42.6511 75.2555C42.257 74.8164 41.8005 74.4379 41.2959 74.1322C41.207 74.0727 41.1145 74.0205 41.0184 73.9748L40.9325 73.9262L40.6928 73.8102L40.6592 73.7916C40.5619 73.7466 40.4868 73.7129 40.4123 73.6865C40.3372 73.6607 40.27 73.627 40.1913 73.6006C40.1126 73.5742 40.0038 73.5333 39.9102 73.5069C39.8164 73.4804 39.7119 73.4468 39.6146 73.4246L39.5137 73.4024C39.4212 73.3765 39.3275 73.3561 39.2326 73.3423H39.1353C39.0302 73.3189 38.9238 73.3027 38.8169 73.2936C38.6974 73.2936 38.5664 73.2636 38.4427 73.26C38.1934 73.2438 37.9429 73.2438 37.6936 73.26C37.5783 73.2636 37.4636 73.2732 37.3494 73.29C37.2413 73.2996 37.1338 73.3159 37.0275 73.3387H36.9037C36.819 73.3525 36.7355 73.3711 36.6532 73.3945L36.5409 73.4168L36.2562 73.4997C36.1625 73.5255 36.0652 73.5591 35.9751 73.5928C35.8856 73.627 35.8183 73.6528 35.7396 73.6829L35.5336 73.773L35.4735 73.803C35.393 73.8367 35.3143 73.8757 35.2374 73.9189L35.1479 73.9676C35.0518 74.0126 34.9593 74.0655 34.871 74.125C34.6662 74.2481 34.4704 74.3845 34.283 74.5328C33.9952 74.7569 33.7297 75.0074 33.4894 75.2819C33.3999 75.3618 33.3158 75.4483 33.2384 75.5402L33.2301 75.5484ZM34.7276 9.00082V9.01944V9.00082ZM38.041 60.2386C38.2068 60.2398 38.3696 60.1953 38.5125 60.1112L52.7704 51.7509C53.0581 51.5834 53.2347 51.2752 53.2347 50.9424V34.73C53.2347 34.3972 53.0581 34.089 52.7704 33.9214L38.5125 25.5612C38.2206 25.3924 37.8614 25.3924 37.5695 25.5612L23.3116 33.9214C23.0239 34.089 22.8473 34.3972 22.8473 34.73V50.9424C22.8473 51.2842 23.0341 51.599 23.3344 51.7624L23.3753 51.7846L37.5695 60.1112C37.7124 60.1953 37.8752 60.2397 38.041 60.2385L38.041 60.2386ZM51.3623 50.4065L38.041 58.2166L24.7196 50.403V35.2657L38.041 27.4556L51.3623 35.2657V50.4065Z" fill="#3E71DE"/>
<path d="M64.9976 27.792C65.3184 27.792 65.6169 27.6274 65.7887 27.3565C65.9605 27.085 65.9809 26.745 65.8439 26.4549C65.7575 26.2753 65.6824 26.0903 65.6193 25.9011C65.4535 25.4109 64.9225 25.1478 64.4323 25.313C63.9422 25.4788 63.6791 26.0098 63.8443 26.5C63.9326 26.7565 64.0377 27.0063 64.159 27.249C64.3092 27.5776 64.636 27.7896 64.9976 27.792H64.9976Z" fill="#3E71DE"/>
<path d="M64.7394 27.1371C64.8397 27.1371 64.94 27.1202 65.0349 27.0884C65.5227 26.9262 65.7882 26.4012 65.6302 25.9129C65.5701 25.7273 65.5203 25.5386 65.4806 25.347C65.3851 24.8767 64.949 24.5547 64.4709 24.6022C63.9933 24.6496 63.6287 25.0503 63.6275 25.5308C63.6215 25.5915 63.6215 25.6534 63.6275 25.714C63.6774 25.9807 63.7464 26.2432 63.8329 26.5003C63.9657 26.886 64.3315 27.1431 64.7394 27.137L64.7394 27.1371Z" fill="#3E71DE"/>
<path d="M41.9346 76.8477C42.1622 76.8483 42.3821 76.766 42.5527 76.6159C42.9383 76.2747 42.9786 75.6872 42.6422 75.2974C42.4007 75.0235 42.1334 74.773 41.8451 74.5489C41.4384 74.2282 40.8491 74.2978 40.529 74.7045C40.2082 75.1106 40.2779 75.6998 40.6845 76.02C40.8828 76.1762 41.0666 76.3486 41.2348 76.5372C41.412 76.7366 41.6673 76.8501 41.9346 76.8477H41.9346Z" fill="#3E71DE"/>
<path d="M41.2688 11.3259C41.4778 11.3265 41.6808 11.2563 41.8454 11.1271C42.1337 10.9031 42.401 10.6526 42.6425 10.3787C42.9837 9.99003 42.9453 9.39775 42.5566 9.05656C42.168 8.71536 41.5763 8.75442 41.2351 9.14305C41.0669 9.33108 40.8831 9.50407 40.6849 9.65965C40.3719 9.90713 40.2506 10.3258 40.3821 10.7024C40.5137 11.079 40.8699 11.3307 41.2687 11.3295L41.2688 11.3259Z" fill="#3E71DE"/>
<path d="M34.1473 76.8477C34.4152 76.8495 34.6705 76.7348 34.8471 76.533C35.0153 76.3449 35.1991 76.172 35.3973 76.0164C35.804 75.6962 35.8737 75.1069 35.5529 74.7003C35.2327 74.2942 34.6434 74.2245 34.2368 74.5453C33.9485 74.7694 33.6811 75.0198 33.4397 75.2938C33.1033 75.6836 33.1435 76.2711 33.5292 76.6117C33.6992 76.7636 33.919 76.8477 34.1473 76.8477H34.1473Z" fill="#3E71DE"/>
<path d="M34.8131 11.3259C35.212 11.3271 35.5682 11.0755 35.6997 10.6988C35.8313 10.3222 35.71 9.90353 35.397 9.65606C35.1988 9.50049 35.015 9.32749 34.8468 9.13947C34.5056 8.75023 33.9139 8.71179 33.5253 9.05297C33.1366 9.39417 33.0982 9.98583 33.4394 10.3751C33.6808 10.649 33.9481 10.8995 34.2365 11.1235C34.4005 11.2539 34.6035 11.3254 34.8131 11.326L34.8131 11.3259Z" fill="#3E71DE"/>
<path d="M38.0409 60.2386C38.2067 60.2398 38.3695 60.1953 38.5125 60.1112L52.7703 51.7509C53.058 51.5834 53.2346 51.2752 53.2346 50.9424V34.73C53.2346 34.3972 53.058 34.089 52.7703 33.9214L38.5125 25.5612C38.2205 25.3924 37.8613 25.3924 37.5694 25.5612L23.3115 33.9214C23.0238 34.089 22.8472 34.3972 22.8472 34.73V50.9424C22.8472 51.2842 23.034 51.599 23.3344 51.7624L23.3752 51.7846L37.5694 60.1112C37.7124 60.1953 37.8752 60.2397 38.0409 60.2385L38.0409 60.2386ZM51.3623 50.4065L38.0409 58.2166L24.7196 50.403V35.2657L38.0409 27.4556L51.3623 35.2657V50.4065Z" fill="#3E71DE"/>
<path d="M11.5178 61.0766C11.5797 61.076 11.6409 61.07 11.7016 61.058C12.1371 60.9691 12.45 60.5859 12.45 60.1408C12.4555 60.0801 12.4555 60.0182 12.45 59.9575C12.3996 59.6908 12.3311 59.4283 12.244 59.1712C12.0818 58.6799 11.552 58.4132 11.0613 58.576C10.5699 58.7382 10.3032 59.268 10.466 59.7587C10.5261 59.9443 10.5759 60.1329 10.6156 60.3246C10.7021 60.7564 11.0775 61.0694 11.5178 61.0766H11.5178Z" fill="#3E71DE"/>
<path d="M11.3425 60.4077C11.4446 60.4083 11.5455 60.3915 11.6422 60.3591C12.0218 60.2293 12.2777 59.8731 12.2783 59.4713C12.2789 59.3698 12.2627 59.2682 12.2296 59.1721C12.1413 58.9156 12.0368 58.6658 11.9155 58.4231C11.6788 57.9798 11.1352 57.8026 10.6829 58.0206C10.2306 58.2387 10.0311 58.7751 10.2306 59.2358C10.3165 59.4154 10.3916 59.6004 10.4552 59.7896C10.591 60.1621 10.946 60.4095 11.3424 60.4077H11.3425Z" fill="#3E71DE"/>
<path d="M38.0409 60.2386C38.2067 60.2398 38.3695 60.1954 38.5125 60.1113L52.7703 51.751C53.058 51.5834 53.2346 51.2752 53.2346 50.9425V34.73C53.2346 34.3948 53.0556 34.0855 52.7649 33.9185C52.4742 33.7515 52.1161 33.7527 51.8266 33.9215L37.5694 42.2824C37.2817 42.45 37.1051 42.7581 37.1051 43.0909V59.3095C37.1051 59.8267 37.5237 60.246 38.0409 60.246V60.2386ZM51.3623 50.4066L38.9768 57.67V43.626L51.3623 36.3626V50.4066Z" fill="#3E71DE"/>
<path d="M38.0409 60.2386C38.5581 60.2386 38.9768 59.8199 38.9768 59.3028V43.0903C38.9768 42.7575 38.8002 42.4494 38.5125 42.2818L24.2553 33.9209C23.9657 33.7521 23.6077 33.7509 23.317 33.9179C23.0263 34.0849 22.8472 34.3942 22.8472 34.7294V50.9419C22.8472 51.2837 23.0341 51.5984 23.3344 51.7618L23.3753 51.784L37.5694 60.1106C37.7124 60.1947 37.8752 60.2392 38.041 60.238L38.0409 60.2386ZM37.1051 43.6263V57.6703L24.7196 50.4032V36.3628L37.1051 43.6263Z" fill="#3E71DE"/>
<path d="M38.0409 44.0261C38.2067 44.0267 38.3695 43.9828 38.5125 43.8987L52.7703 35.5385C53.058 35.3709 53.2346 35.0627 53.2346 34.7293C53.2346 34.3966 53.058 34.0884 52.7703 33.9208L38.5125 25.5606C38.2205 25.3918 37.8613 25.3918 37.5694 25.5606L23.3115 33.9208C23.0238 34.0884 22.8472 34.3966 22.8472 34.7293C22.8472 35.0627 23.0238 35.3709 23.3115 35.5385L37.5694 43.8987C37.7123 43.9828 37.8751 44.0267 38.0409 44.0261ZM50.4487 34.7293L38.0409 42.0043L25.6331 34.7293L38.0409 27.455L50.4487 34.7293Z" fill="#3E71DE"/>
<path d="M38.0409 27.3046C38.5581 27.3046 38.9768 26.8859 38.9768 26.3687V11.4935C38.9768 10.9769 38.5581 10.5576 38.0409 10.5576C37.5238 10.5576 37.1051 10.9769 37.1051 11.4935V26.3616C37.1027 26.6109 37.2006 26.8512 37.3766 27.0284C37.552 27.205 37.7917 27.3047 38.0409 27.3047V27.3046Z" fill="#3E71DE"/>
<path d="M38.0409 74.818C38.5581 74.818 38.9768 74.3987 38.9768 73.8815V59.0069C38.9768 58.4897 38.5581 58.0704 38.0409 58.0704C37.5238 58.0704 37.1051 58.4897 37.1051 59.0069V73.8815C37.1051 74.3987 37.5238 74.818 38.0409 74.818Z" fill="#3E71DE"/>
<path d="M52.1451 35.4117C52.3097 35.4117 52.4713 35.3672 52.613 35.2843L65.4664 27.7963C65.7698 27.6353 65.9602 27.3217 65.9638 26.9787C65.9674 26.6357 65.783 26.318 65.4833 26.1516C65.1835 25.9846 64.8165 25.9948 64.527 26.1786L51.6736 33.6667C51.4585 33.7904 51.3017 33.9947 51.2375 34.2343C51.1738 34.474 51.208 34.7293 51.3324 34.9438C51.5012 35.2327 51.8105 35.4105 52.1451 35.4117L52.1451 35.4117Z" fill="#3E71DE"/>
<path d="M11.0843 59.3097C11.2489 59.3097 11.4105 59.2659 11.5522 59.1824L24.4057 51.6943C24.709 51.5339 24.9 51.2204 24.903 50.8774C24.9066 50.5338 24.7222 50.2166 24.4225 50.0496C24.1227 49.8827 23.7557 49.8935 23.4662 50.0773L10.6128 57.5653C10.3977 57.6897 10.2403 57.8945 10.1767 58.1348C10.113 58.3751 10.1472 58.6309 10.2722 58.8454C10.4422 59.1325 10.7509 59.3091 11.0843 59.3097V59.3097Z" fill="#3E71DE"/>
<path d="M65.1745 59.0146C65.6016 59.0176 65.9758 58.731 66.0852 58.3184C66.1945 57.9057 66.0107 57.4714 65.6389 57.2624L52.699 49.9238C52.2497 49.6685 51.6779 49.8259 51.4226 50.2758C51.1673 50.7257 51.3247 51.2969 51.7746 51.5528L64.7139 58.8908C64.8545 58.9713 65.0131 59.014 65.1747 59.0146H65.1745Z" fill="#3E71DE"/>
<path d="M23.8429 35.5732C24.2699 35.5762 24.6448 35.2896 24.7541 34.877C24.8634 34.4643 24.6796 34.03 24.3072 33.821L11.3678 26.4824C10.9179 26.2271 10.3461 26.3845 10.0908 26.8344C9.83548 27.2843 9.99347 27.8555 10.4428 28.1108L23.3826 35.4494C23.522 35.5311 23.6812 35.5738 23.8427 35.5732L23.8429 35.5732Z" fill="#3E71DE"/>
</svg>
