<svg width="76" height="82" viewBox="0 0 76 82" fill="none" xmlns="http://www.w3.org/2000/svg">
<path d="M1.80714 30.0319L13.3694 20.0024V5.19052C13.3694 4.42915 13.988 3.81254 14.7441 3.81254H23.0892C23.8487 3.81254 24.4638 4.42915 24.4638 5.19052V10.3759L35.2527 1.01791C36.8202 -0.339303 39.1816 -0.339303 40.7485 1.01791L74.1926 30.0289C76.3648 31.9029 76.6156 35.2248 74.7462 37.4368C73.8353 38.4981 72.5602 39.1319 71.1544 39.2283C71.0307 39.2353 70.9105 39.2387 70.7902 39.2387C69.5255 39.2387 68.3153 38.7905 67.3533 37.9571L65.7139 36.5341V68.0834C65.7139 69.6789 64.4216 70.9778 62.8265 70.9778H61.1457V75.5121C61.1457 79.0883 58.2451 82 54.677 82H39.8522C36.2846 82 33.3834 79.0889 33.3834 75.5121V70.9778H13.1629C11.5679 70.9778 10.272 69.6789 10.272 68.0834V36.5444L8.63961 37.9605C6.46745 39.838 3.15427 39.6107 1.24269 37.4298C-0.61306 35.2212 -0.362198 31.9029 1.80659 30.0323L1.80714 30.0319ZM21.7139 6.56849H16.1215V17.6149L21.7139 12.7639V6.56849ZM36.1326 75.5159C36.1326 77.5728 37.7995 79.2438 39.8514 79.2438H54.6762C56.7282 79.2438 58.3951 77.5728 58.3951 75.5159V69.6349C58.3951 69.6245 58.3882 69.6141 58.3882 69.6003C58.3882 69.5864 58.3951 69.5795 58.3951 69.5657V66.0373C58.3951 63.9804 56.7282 62.3128 54.6762 62.3128H39.8514C37.7995 62.3128 36.1326 63.9804 36.1326 66.0373V75.5159ZM40.7727 59.5523H53.7516V53.6712C53.7516 50.0916 50.8475 47.1799 47.2759 47.1799C43.6911 47.1799 40.7727 50.091 40.7727 53.6712V59.5523ZM17.961 68.2176H27.9186V50.7774H17.961V68.2176ZM13.1633 68.2176H15.2084V49.3953C15.2084 48.6339 15.8269 48.0173 16.583 48.0173H29.2932C30.0527 48.0173 30.6679 48.6373 30.6679 49.3953V68.2176H33.3797V66.0333C33.3797 63.1015 35.346 60.6413 38.0199 59.8454V53.6678C38.0199 48.5683 42.1721 44.4205 47.2724 44.4205C52.3595 44.4205 56.4973 48.5689 56.4973 53.6678V59.8454C59.1712 60.6414 61.1408 63.1015 61.1408 66.0333V68.1593L62.9592 68.0837V34.1497L38.4565 12.888C38.1952 12.6642 37.7999 12.6607 37.5352 12.888L13.0252 34.1527L13.1633 68.2176ZM3.32616 35.6244C4.23703 36.658 5.81487 36.7682 6.84601 35.8724L35.7354 10.8069C37.0244 9.68388 38.9732 9.68042 40.2587 10.8069L69.1482 35.8724C69.6499 36.3067 70.3099 36.5444 70.9665 36.4751C71.6334 36.4302 72.2347 36.1308 72.6542 35.6446C73.5443 34.5902 73.431 33.0051 72.3929 32.1128L38.9459 3.10624C38.6708 2.86859 38.3342 2.74804 37.997 2.74804C37.6604 2.74804 37.3232 2.86513 37.0482 3.10624L15.7243 21.6008C15.7105 21.6181 15.6898 21.6285 15.676 21.6423L3.59818 32.1199C2.57107 33.0088 2.45772 34.5938 3.32717 35.6239L3.32616 35.6244Z" fill="#3E71DE"/>
<path d="M45.8469 72.1365V70.2372C45.8469 69.5531 46.3639 69 47.0035 69C47.643 69 48.16 69.5531 48.16 70.2372L48.1532 72.1254C48.6669 72.5073 49 73.1445 49 73.8718C49 75.0431 48.1054 76 47 76C45.8946 76 45 75.0431 45 73.8718C45 73.1444 45.3331 72.5073 45.8468 72.1363L45.8469 72.1365Z" fill="#3E71DE"/>
<path d="M46 29.0003C46 33.4102 42.4135 37 38 37C33.59 37 30 33.4136 30 29.0003C30 24.5864 33.5901 21 38 21C42.4099 21 46 24.59 46 29.0003ZM32.8076 29.0003C32.8076 31.8642 35.1389 34.1953 38 34.1953C40.8605 34.1953 43.1952 31.8642 43.1952 29.0003C43.1952 26.1364 40.864 23.8053 38 23.8053C35.136 23.8047 32.8076 26.1358 32.8076 29.0003Z" fill="#3E71DE"/>
<path d="M19.5 61C18.6712 61 18 60.3288 18 59.5C18 58.6712 18.6712 58 19.5 58C20.3288 58 21 58.6712 21 59.5C21 60.3288 20.3288 61 19.5 61Z" fill="#3E71DE"/>
</svg>
