<svg width="592" height="583" viewBox="0 0 592 583" fill="none" xmlns="http://www.w3.org/2000/svg">
<g opacity="0.85">
<path d="M261.5 0L190 43.5L210 125.5L271.5 151.5L345 107.5L322.5 24L261.5 0Z" fill="white"/>
<path d="M344.419 107.265L271.817 150.727L250.794 69.025L322.192 24.779L344.419 107.265Z" stroke="#D4DFF6"/>
<line x1="190.196" y1="43.54" x2="251.196" y2="69.54" stroke="#D4DFF6"/>
</g>
<g opacity="0.85">
<path d="M327.5 222L256 265.5L276 347.5L337.5 373.5L411 329.5L388.5 246L327.5 222Z" fill="white"/>
<path d="M410.419 329.265L337.817 372.727L316.794 291.025L388.192 246.779L410.419 329.265Z" stroke="#D4DFF6"/>
<line x1="256.196" y1="265.54" x2="317.196" y2="291.54" stroke="#D4DFF6"/>
</g>
<g opacity="0.85">
<path d="M508.5 345L437 388.5L457 470.5L518.5 496.5L592 452.5L569.5 369L508.5 345Z" fill="white"/>
<path d="M591.419 452.265L518.817 495.727L497.794 414.025L569.192 369.779L591.419 452.265Z" stroke="#D4DFF6"/>
<line x1="437.196" y1="388.54" x2="498.196" y2="414.54" stroke="#D4DFF6"/>
</g>
<g opacity="0.85">
<path d="M140.5 337L69 380.5L89 462.5L150.5 488.5L224 444.5L201.5 361L140.5 337Z" fill="white"/>
<path d="M223.419 444.265L150.817 487.727L129.794 406.025L201.192 361.779L223.419 444.265Z" stroke="#D4DFF6"/>
<line x1="69.196" y1="380.54" x2="130.196" y2="406.54" stroke="#D4DFF6"/>
</g>
<path d="M549.291 116.15L479.917 157.386L422.24 133.834L492.575 92.118L549.291 116.15Z" stroke="#D4DFF6" stroke-width="2"/>
<path d="M440.353 212.778L421.433 135.156L479.126 158.427L479.59 158.615L480.018 158.355L549.852 116.062L569.353 196.018L498.926 237.88L440.353 212.778Z" stroke="#D4DFF6" stroke-width="2"/>
<line x1="497.026" y1="237.225" x2="479.026" y2="159.225" stroke="#D4DFF6" stroke-width="2"/>
<path d="M129.291 136.15L59.9171 177.386L2.2396 153.834L72.5753 112.118L129.291 136.15Z" stroke="#D4DFF6" stroke-width="2"/>
<path d="M20.3532 232.778L1.433 155.156L59.1259 178.427L59.59 178.615L60.018 178.355L129.852 136.062L149.353 216.018L78.9263 257.88L20.3532 232.778Z" stroke="#D4DFF6" stroke-width="2"/>
<line x1="77.0256" y1="257.225" x2="59.0256" y2="179.225" stroke="#D4DFF6" stroke-width="2"/>
<path d="M400.291 460.15L330.917 501.386L273.24 477.834L343.575 436.118L400.291 460.15Z" stroke="#D4DFF6" stroke-width="2"/>
<path d="M291.353 556.778L272.433 479.156L330.126 502.427L330.59 502.615L331.018 502.355L400.852 460.062L420.353 540.018L349.926 581.88L291.353 556.778Z" stroke="#D4DFF6" stroke-width="2"/>
<line x1="348.026" y1="581.225" x2="330.026" y2="503.225" stroke="#D4DFF6" stroke-width="2"/>
<line x1="331.339" y1="69.0591" x2="456.339" y2="114.059" stroke="white" stroke-width="2"/>
<line x1="512" y1="230" x2="512" y2="361" stroke="white" stroke-width="2"/>
<line x1="136.478" y1="160.147" x2="221.478" y2="108.147" stroke="white" stroke-width="2"/>
<line x1="91.9696" y1="249.755" x2="119.97" y2="360.755" stroke="white" stroke-width="2"/>
<line x1="280.542" y1="330.84" x2="201.542" y2="381.84" stroke="white" stroke-width="2"/>
<path d="M195.483 436.124L273.483 479.124" stroke="white" stroke-width="2"/>
<path d="M195.483 436.124L273.483 479.124" stroke="white" stroke-width="2"/>
<line x1="406.668" y1="484.057" x2="460.668" y2="465.057" stroke="white" stroke-width="2"/>
<line x1="283.965" y1="141.737" x2="310.965" y2="240.737" stroke="white" stroke-width="2"/>
<circle cx="222" cy="108" r="2" fill="white"/>
<path d="M313 241C313 242.105 312.105 243 311 243C309.895 243 309 242.105 309 241C309 239.895 309.895 239 311 239C312.105 239 313 239.895 313 241Z" fill="white"/>
<circle cx="282" cy="330" r="2" fill="white"/>
<circle cx="512" cy="362" r="2" fill="white"/>
<circle cx="462" cy="465" r="2" fill="white"/>
<circle cx="195" cy="436" r="2" fill="white"/>
<circle cx="120" cy="361" r="2" fill="white"/>
<path d="M516.052 184.875L522.958 182.274C523.594 182.034 523.937 181.382 523.724 180.817L521.797 175.701C521.584 175.136 520.897 174.872 520.261 175.111L513.354 177.713C512.718 177.952 512.375 178.604 512.588 179.169L514.515 184.285C514.728 184.851 515.416 185.115 516.052 184.875ZM515.276 179.325L519.88 177.591L521.036 180.661L516.432 182.395L515.276 179.325Z" fill="white"/>
<path d="M539.572 159.667L517.849 157.463C517.467 157.424 517.088 157.567 516.827 157.849L501.954 173.835C501.569 174.249 501.519 174.872 501.834 175.339C502.15 175.806 502.746 175.996 503.277 175.796L504.421 175.366L515.125 203.788C515.362 204.416 516.065 204.732 516.697 204.494L548.718 192.435C549.349 192.197 549.67 191.495 549.433 190.867L538.729 162.444L539.872 162.014C540.403 161.814 540.727 161.278 540.655 160.719C540.583 160.159 540.135 159.724 539.572 159.667L539.572 159.667ZM518.2 159.944L534.172 161.564L507.266 171.698L518.2 159.944ZM527.277 197.914L522.702 199.636L519.277 190.541L523.851 188.818L527.277 197.914ZM546.718 190.592L529.564 197.052L525.71 186.82C525.474 186.192 524.77 185.876 524.139 186.114L517.277 188.698C516.645 188.936 516.325 189.638 516.562 190.266L520.415 200.498L516.984 201.79L506.708 174.504L536.442 163.306L546.718 190.592Z" fill="white"/>
<path d="M529.838 184.022C529.16 184.278 528.795 184.975 529.024 185.581C529.252 186.187 529.986 186.47 530.664 186.215L534.348 184.828L534.761 185.924C534.989 186.53 535.723 186.813 536.402 186.558C537.08 186.302 537.445 185.605 537.216 184.999L536.804 183.903L538.031 183.44C540.063 182.675 541.159 180.578 540.476 178.764C539.793 176.951 537.585 176.097 535.554 176.863L534.326 177.325L533.5 175.132L537.184 173.745C537.862 173.49 538.227 172.792 537.999 172.186C537.771 171.581 537.037 171.297 536.358 171.552L532.675 172.94L532.262 171.843C532.034 171.238 531.299 170.954 530.621 171.21C529.943 171.465 529.578 172.163 529.806 172.768L530.219 173.865L528.991 174.327C526.96 175.092 525.863 177.19 526.546 179.003C527.229 180.817 529.437 181.67 531.468 180.905L532.696 180.442L533.522 182.635L529.838 184.022ZM535.152 179.518L536.38 179.055C537.057 178.8 537.793 179.085 538.021 179.689C538.248 180.293 537.883 180.993 537.206 181.248L535.978 181.71L535.152 179.518ZM530.643 178.712C529.966 178.967 529.23 178.683 529.002 178.078C528.774 177.474 529.14 176.775 529.817 176.52L531.045 176.057L531.871 178.25L530.643 178.712Z" fill="white"/>
<path d="M100.361 199.504C100.48 199.769 100.791 199.888 101.055 199.77C101.319 199.651 101.436 199.34 101.317 199.074L100.361 199.504ZM96.6481 206.547C96.5289 206.282 96.2184 206.163 95.9543 206.281C95.6905 206.4 95.5729 206.711 95.6922 206.977L96.6481 206.547ZM101.029 209.924C101.148 210.189 101.459 210.308 101.723 210.19C101.987 210.071 102.104 209.76 101.985 209.494L101.029 209.924ZM96.0231 196.223C95.904 195.957 95.5931 195.838 95.3293 195.957C95.0652 196.075 94.948 196.387 95.0672 196.652L96.0231 196.223ZM109.235 214.121C109.499 214.002 109.616 213.691 109.497 213.425C109.378 213.16 109.067 213.041 108.803 213.16L109.235 214.121ZM88.7244 219.404L88.3678 219.788L88.3683 219.789L88.7244 219.404ZM88.3428 192.236L88.1269 191.756C88.0512 191.79 87.9844 191.842 87.9326 191.907L88.3428 192.236ZM88.3815 192.219L88.5973 192.699C88.6651 192.669 88.7255 192.624 88.7749 192.569L88.3815 192.219ZM88.4375 192.155L88.8308 192.505C88.8364 192.499 88.8416 192.492 88.847 192.486L88.4375 192.155ZM88.1672 190.062L87.8567 190.485L88.1672 190.062ZM83.6897 187.536L83.4108 187.98L83.4112 187.981L83.6897 187.536ZM85.578 184.88L85.4441 184.371L85.4432 184.371L85.578 184.88ZM92.202 181.52L92.4931 181.959L92.497 181.957L92.202 181.52ZM95.4111 181.617L94.9105 181.772C94.9167 181.792 94.9243 181.812 94.9331 181.832L95.4111 181.617ZM95.3911 186.717L94.8682 186.675L94.868 186.68L95.3911 186.717ZM95.4008 187.012L94.881 187.08L94.8812 187.081L95.4008 187.012ZM96.8123 188.286L96.8316 187.76L96.8274 187.76L96.8123 188.286ZM97.1104 188.298L97.1372 187.772L97.1296 187.772L97.1104 188.298ZM111.652 199.938L111.174 200.152L111.175 200.156L111.652 199.938ZM111.793 201.168C111.973 201.397 112.303 201.436 112.53 201.257C112.757 201.077 112.796 200.747 112.616 200.518L111.793 201.168ZM87.9509 191.906C87.7762 192.137 87.8216 192.467 88.0525 192.643C88.2833 192.82 88.6122 192.775 88.787 192.544L87.9509 191.906ZM97.2192 188.801C97.5065 188.767 97.7111 188.505 97.6761 188.216C97.6412 187.928 97.3796 187.721 97.092 187.755L97.2192 188.801ZM88.0269 189.625C87.8232 189.831 87.8254 190.164 88.0314 190.369C88.2373 190.574 88.5694 190.574 88.7731 190.368L88.0269 189.625ZM95.4621 187.516C95.7516 187.512 95.9821 187.273 95.9766 186.982C95.9713 186.691 95.7323 186.459 95.4426 186.464L95.4621 187.516ZM121.219 207.022L121.173 207.546C121.18 207.547 121.186 207.547 121.193 207.548L121.219 207.022ZM125.224 206.277L125.008 205.796L125.224 206.277ZM128.442 203.778L128.852 204.107C128.856 204.102 128.86 204.098 128.863 204.092L128.442 203.778ZM128.405 197.427C128.285 197.161 127.975 197.042 127.711 197.161C127.447 197.28 127.329 197.591 127.449 197.856L128.405 197.427ZM120.035 204.386L119.989 204.91C119.996 204.91 120.002 204.911 120.008 204.911L120.035 204.386ZM124.04 203.64L123.824 203.16L124.04 203.64ZM127.258 201.141L127.668 201.47C127.672 201.466 127.675 201.461 127.679 201.456L127.258 201.141ZM118.845 201.737L118.799 202.261C118.806 202.261 118.812 202.262 118.819 202.262L118.845 201.737ZM122.85 200.991L122.634 200.51L122.85 200.991ZM126.068 198.492L126.478 198.821C126.482 198.816 126.486 198.812 126.489 198.807L126.068 198.492ZM117.452 202.347C117.333 202.081 117.023 201.962 116.758 202.081C116.494 202.199 116.377 202.511 116.496 202.776L117.452 202.347ZM98.2905 202.548C97.449 202.926 96.6064 203.029 95.9357 202.914C95.2605 202.799 94.822 202.482 94.6391 202.074L93.6832 202.504C94.055 203.332 94.8661 203.799 95.7637 203.952C96.6656 204.106 97.7181 203.96 98.7223 203.509L98.2905 202.548ZM94.6391 202.074C94.4563 201.667 94.5101 201.129 94.8724 200.547C95.2324 199.97 95.8685 199.408 96.71 199.03L96.2783 198.069C95.2741 198.52 94.4664 199.21 93.9824 199.987C93.5008 200.759 93.3111 201.676 93.6831 202.504L94.6391 202.074ZM96.71 199.03C97.5515 198.652 98.3941 198.55 99.0648 198.664C99.7398 198.779 100.178 199.097 100.361 199.504L101.317 199.075C100.945 198.247 100.134 197.78 99.2369 197.626C98.335 197.472 97.2825 197.618 96.2782 198.069L96.71 199.03ZM98.7222 203.509C99.5643 203.131 100.407 203.027 101.077 203.14C101.751 203.254 102.188 203.57 102.371 203.977L103.327 203.548C102.954 202.719 102.144 202.254 101.247 202.102C100.346 201.95 99.2942 202.098 98.2906 202.548L98.7222 203.509ZM102.37 203.977C102.553 204.384 102.499 204.923 102.137 205.504C101.778 206.081 101.141 206.643 100.3 207.021L100.732 207.982C101.736 207.531 102.543 206.841 103.027 206.064C103.509 205.292 103.698 204.375 103.326 203.547L102.37 203.977ZM100.3 207.021C99.4584 207.399 98.6158 207.502 97.9449 207.387C97.2698 207.272 96.8313 206.954 96.6484 206.547L95.6925 206.977C96.0644 207.805 96.8756 208.272 97.773 208.425C98.6749 208.579 99.7274 208.433 100.732 207.982L100.3 207.021ZM101.985 209.495L100.994 207.287L100.038 207.717L101.029 209.924L101.985 209.495ZM96.9722 198.335L96.0235 196.223L95.0676 196.653L96.0162 198.764L96.9722 198.335ZM108.804 213.161C107.993 213.525 107.17 213.871 106.357 214.214C105.546 214.555 104.745 214.891 103.988 215.231L104.42 216.192C105.163 215.859 105.952 215.527 106.765 215.185C107.577 214.843 108.412 214.492 109.235 214.122L108.804 213.161ZM103.988 215.231C101.36 216.412 98.2504 217.977 95.4181 218.93C94.0055 219.405 92.702 219.714 91.5967 219.751C90.4907 219.788 89.6524 219.552 89.0815 219.019L88.3691 219.789C89.2231 220.586 90.3834 220.844 91.6356 220.803C92.8887 220.761 94.3029 220.417 95.7551 219.928C98.6518 218.954 101.857 217.344 104.42 216.192L103.988 215.231ZM89.0817 219.02C88.5291 218.504 88.171 217.715 87.9496 216.709C87.729 215.706 87.6568 214.547 87.6301 213.347C87.6037 212.175 87.6213 210.918 87.5726 209.84C87.5236 208.762 87.4064 207.732 87.0639 206.97L86.1079 207.399C86.3604 207.961 86.4759 208.81 86.5248 209.884C86.5736 210.958 86.5537 212.126 86.5813 213.367C86.6086 214.58 86.682 215.824 86.9254 216.932C87.1682 218.035 87.5928 219.064 88.3682 219.789L89.0817 219.02ZM87.0639 206.97C85.5671 203.638 85.0301 201.298 85.3153 199.192C85.6008 197.084 86.7205 195.121 88.7539 192.566L87.9332 191.907C85.8705 194.499 84.6008 196.647 84.2758 199.046C83.951 201.445 84.5835 204.006 86.108 207.399L87.0639 206.97ZM88.5592 192.717L88.5978 192.7L88.1661 191.739L88.1275 191.756L88.5592 192.717ZM88.7754 192.569L88.8313 192.505L88.0448 191.806L87.9884 191.87L88.7754 192.569ZM88.8475 192.486C89.0147 192.278 89.1381 192.037 89.2105 191.779L88.2007 191.49C88.1665 191.612 88.1081 191.726 88.0286 191.825L88.8475 192.486ZM89.2105 191.779C89.2829 191.522 89.3025 191.252 89.2683 190.986L88.2281 191.117C88.2441 191.242 88.2348 191.369 88.2006 191.49L89.2105 191.779ZM89.2683 190.986C89.2339 190.72 89.1462 190.463 89.0103 190.232L88.1072 190.763C88.1709 190.872 88.2118 190.992 88.2281 191.117L89.2683 190.986ZM89.0103 190.232C88.8745 190 88.6937 189.799 88.4783 189.639L87.8572 190.485C87.9587 190.56 88.0435 190.655 88.1072 190.763L89.0103 190.232ZM88.4784 189.64C87.9457 189.244 87.2325 188.877 86.4733 188.486C85.6992 188.086 84.8453 187.647 83.969 187.092L83.4118 187.981C84.3329 188.565 85.2269 189.024 85.9966 189.421C86.7814 189.826 87.4082 190.152 87.8572 190.485L88.4784 189.64ZM83.9694 187.092C83.6199 186.87 83.447 186.692 83.3795 186.574C83.3499 186.522 83.3494 186.497 83.3495 186.493C83.3494 186.49 83.3486 186.473 83.3731 186.434C83.4335 186.337 83.6074 186.173 84.0153 185.974C84.41 185.783 84.967 185.586 85.7131 185.39L85.4437 184.372C84.6637 184.577 84.0347 184.794 83.5553 185.027C83.089 185.253 82.7008 185.524 82.4836 185.872C82.369 186.056 82.3007 186.264 82.3004 186.488C82.3003 186.71 82.3673 186.914 82.4694 187.094C82.6651 187.437 83.0119 187.728 83.4113 187.981L83.9694 187.092ZM85.7121 185.39C86.2667 185.246 86.6151 184.915 86.8444 184.517C87.0546 184.154 87.1737 183.713 87.2802 183.359C87.5061 182.606 87.7378 181.989 88.5324 181.632L88.1007 180.671C86.8508 181.233 86.5094 182.273 86.2756 183.051C86.1522 183.462 86.0699 183.756 85.9363 183.987C85.8227 184.184 85.6861 184.309 85.4446 184.372L85.7121 185.39ZM88.5324 181.632C88.7111 181.552 88.9377 181.534 89.2363 181.581C89.5386 181.628 89.862 181.732 90.2219 181.852C90.561 181.964 90.9496 182.097 91.3113 182.155C91.6742 182.213 92.1104 182.215 92.4934 181.96L91.9113 181.082C91.8496 181.123 91.7307 181.157 91.473 181.116C91.2138 181.074 90.9159 180.975 90.5478 180.853C90.2004 180.737 89.7958 180.604 89.3936 180.541C88.988 180.477 88.5339 180.477 88.1007 180.671L88.5324 181.632ZM92.4975 181.957C92.9298 181.664 93.2314 181.436 93.5619 181.219C93.8791 181.01 94.0985 180.9 94.2577 180.865C94.3739 180.839 94.4235 180.856 94.49 180.918C94.5967 181.017 94.7496 181.254 94.9109 181.772L95.9119 181.462C95.7341 180.891 95.5133 180.437 95.2012 180.147C94.8484 179.819 94.4336 179.748 94.0293 179.837C93.6681 179.916 93.3108 180.123 92.9848 180.337C92.672 180.543 92.2631 180.843 91.9073 181.084L92.4975 181.957ZM94.9336 181.832C94.932 181.829 94.937 181.84 94.9452 181.872C94.9528 181.903 94.9614 181.945 94.9694 182C94.9861 182.109 94.9996 182.25 95.0094 182.423C95.0287 182.767 95.0313 183.202 95.0219 183.686C95.0028 184.652 94.9364 185.777 94.8687 186.676L95.9146 186.759C95.9829 185.85 96.0512 184.704 96.0706 183.711C96.0803 183.215 96.0782 182.75 96.0565 182.367C96.0458 182.176 96.0298 181.999 96.0064 181.845C95.9845 181.7 95.9509 181.539 95.8896 181.403L94.9336 181.832ZM94.8685 186.68C94.8594 186.813 94.8639 186.947 94.8814 187.08L95.9212 186.946C95.9127 186.883 95.9108 186.818 95.915 186.754L94.8685 186.68ZM94.8816 187.082C94.9453 187.55 95.1729 187.982 95.5239 188.298L96.2236 187.517C96.0578 187.367 95.9509 187.164 95.9208 186.944L94.8816 187.082ZM95.5239 188.298C95.8752 188.615 96.3263 188.796 96.7977 188.812L96.8278 187.76C96.6029 187.753 96.389 187.666 96.2235 187.517L95.5239 188.298ZM96.7935 188.812L97.0916 188.824L97.1301 187.772L96.832 187.76L96.7935 188.812ZM97.0841 188.824C103.406 189.172 108.198 193.528 111.174 200.153L112.13 199.723C109.058 192.885 103.989 188.15 97.1379 187.773L97.0841 188.824ZM111.176 200.157C111.341 200.517 111.549 200.857 111.794 201.169L112.616 200.518C112.422 200.272 112.259 200.004 112.128 199.72L111.176 200.157ZM88.369 192.225C88.7872 192.544 88.7871 192.545 88.7871 192.545C88.7868 192.545 88.7869 192.545 88.7867 192.545C88.7864 192.545 88.7865 192.545 88.7862 192.546C88.7861 192.546 88.7862 192.546 88.7862 192.546C88.7865 192.545 88.7873 192.544 88.7885 192.543C88.7914 192.539 88.7965 192.533 88.8042 192.523C88.819 192.505 88.8436 192.476 88.8783 192.437C88.9476 192.358 89.0566 192.241 89.2086 192.096C89.5122 191.807 89.987 191.405 90.6565 190.979C91.9929 190.127 94.1153 189.168 97.2195 188.8L97.0923 187.755C93.8267 188.142 91.5556 189.156 90.0916 190.09C89.3604 190.556 88.8329 190.999 88.4841 191.332C88.31 191.498 88.1805 191.637 88.0927 191.736C88.049 191.786 88.0153 191.826 87.9919 191.854C87.9801 191.869 87.9708 191.88 87.9641 191.889C87.9606 191.893 87.958 191.896 87.9558 191.899C87.9548 191.901 87.9537 191.902 87.9529 191.903C87.9526 191.904 87.9525 191.904 87.9519 191.904C87.9518 191.905 87.9515 191.905 87.9515 191.905C87.9514 191.905 87.9511 191.905 88.369 192.225L88.369 192.225ZM88.7734 190.368C90.5427 188.577 92.9455 187.553 95.4625 187.516L95.443 186.463C92.6524 186.504 89.989 187.64 88.0269 189.625L88.7734 190.368ZM117.687 205.425L118.877 208.075L119.833 207.645L118.643 204.996L117.687 205.425ZM118.877 208.075C119.407 209.255 120.613 209.93 121.995 210.143C123.386 210.357 125.036 210.122 126.628 209.407L126.196 208.446C124.763 209.09 123.316 209.282 122.15 209.103C120.975 208.922 120.165 208.384 119.833 207.645L118.877 208.075ZM126.628 209.407C128.218 208.693 129.494 207.622 130.261 206.442C131.025 205.268 131.321 203.917 130.786 202.725L129.83 203.154C130.168 203.907 130.029 204.87 129.382 205.864C128.74 206.852 127.631 207.802 126.196 208.446L126.628 209.407ZM130.786 202.725L129.596 200.075L128.64 200.505L129.83 203.154L130.786 202.725ZM116.502 202.789L117.686 205.425L118.642 204.996L117.458 202.36L116.502 202.789ZM117.686 205.425C118.268 206.72 119.631 207.406 121.174 207.546L121.265 206.498C119.933 206.377 119.01 205.813 118.642 204.996L117.686 205.425ZM121.193 207.548C122.652 207.627 124.108 207.356 125.441 206.757L125.009 205.796C123.828 206.327 122.538 206.567 121.246 206.496L121.193 207.548ZM125.441 206.757C126.773 206.158 127.943 205.25 128.853 204.107L128.032 203.448C127.226 204.46 126.19 205.266 125.009 205.796L125.441 206.757ZM128.864 204.092C129.781 202.854 130.177 201.37 129.595 200.076L128.639 200.505C129.006 201.322 128.811 202.396 128.021 203.462L128.864 204.092ZM129.595 200.076L128.405 197.426L127.449 197.856L128.639 200.505L129.595 200.076ZM115.312 200.14L116.502 202.789L117.458 202.36L116.268 199.71L115.312 200.14ZM116.502 202.789C117.083 204.084 118.446 204.769 119.989 204.91L120.08 203.862C118.749 203.74 117.825 203.177 117.458 202.36L116.502 202.789ZM120.009 204.911C121.467 204.991 122.924 204.72 124.256 204.121L123.824 203.16C122.644 203.69 121.353 203.931 120.061 203.86L120.009 204.911ZM124.256 204.121C125.589 203.522 126.759 202.614 127.668 201.47L126.847 200.812C126.042 201.824 125.005 202.63 123.825 203.16L124.256 204.121ZM127.679 201.456C128.596 200.217 128.992 198.734 128.411 197.439L127.455 197.869C127.822 198.686 127.626 199.76 126.836 200.826L127.679 201.456ZM128.411 197.439L127.221 194.79L126.265 195.219L127.455 197.869L128.411 197.439ZM114.121 197.491L115.311 200.14L116.267 199.71L115.077 197.061L114.121 197.491ZM115.311 200.14C115.893 201.435 117.256 202.12 118.799 202.261L118.89 201.212C117.558 201.091 116.635 200.528 116.267 199.71L115.311 200.14ZM118.818 202.262C120.277 202.341 121.733 202.07 123.066 201.472L122.634 200.511C121.453 201.041 120.163 201.281 118.871 201.211L118.818 202.262ZM123.066 201.472C124.398 200.873 125.568 199.964 126.478 198.821L125.657 198.163C124.851 199.175 123.815 199.98 122.634 200.511L123.066 201.472ZM126.489 198.807C127.406 197.568 127.802 196.085 127.22 194.79L126.264 195.22C126.631 196.037 126.436 197.111 125.646 198.177L126.489 198.807ZM127.22 194.79L126.03 192.141L125.074 192.571L126.264 195.22L127.22 194.79ZM115.077 197.061C114.745 196.322 114.882 195.361 115.528 194.365C116.168 193.376 117.274 192.423 118.707 191.779L118.276 190.818C116.684 191.532 115.412 192.609 114.647 193.789C113.887 194.962 113.591 196.31 114.121 197.491L115.077 197.061ZM118.707 191.779C120.143 191.134 121.588 190.934 122.753 191.109C123.925 191.284 124.736 191.818 125.074 192.571L126.03 192.141C125.494 190.948 124.288 190.274 122.904 190.067C121.513 189.859 119.865 190.103 118.276 190.818L118.707 191.779ZM125.074 192.571C125.412 193.323 125.273 194.287 124.627 195.281C123.984 196.269 122.875 197.218 121.44 197.863L121.872 198.824C123.462 198.11 124.738 197.038 125.506 195.858C126.269 194.685 126.566 193.334 126.03 192.141L125.074 192.571ZM121.44 197.863C120.005 198.508 118.561 198.707 117.398 198.531C116.229 198.354 115.417 197.818 115.077 197.061L114.121 197.491C114.658 198.686 115.862 199.363 117.246 199.572C118.636 199.782 120.283 199.538 121.872 198.824L121.44 197.863ZM118.876 208.075C119.208 208.814 119.07 209.777 118.423 210.776C117.782 211.768 116.675 212.723 115.242 213.367L115.674 214.328C117.265 213.613 118.538 212.535 119.304 211.352C120.064 210.177 120.362 208.826 119.832 207.646L118.876 208.075ZM115.242 213.367C113.807 214.012 112.363 214.209 111.199 214.033C110.029 213.856 109.217 213.319 108.879 212.566L107.923 212.995C108.458 214.187 109.663 214.864 111.046 215.074C112.437 215.284 114.084 215.042 115.674 214.328L115.242 213.367ZM108.879 212.566L107.689 209.917L106.733 210.346L107.923 212.995L108.879 212.566ZM105.549 207.71L106.733 210.346L107.689 209.917L106.504 207.28L105.549 207.71ZM106.733 210.346C107.263 211.527 108.468 212.202 109.851 212.415C111.242 212.629 112.892 212.394 114.484 211.679L114.052 210.718C112.619 211.362 111.171 211.553 110.006 211.374C108.831 211.194 108.021 210.656 107.689 209.917L106.733 210.346ZM114.484 211.679C116.074 210.965 117.35 209.893 118.117 208.714C118.881 207.54 119.177 206.189 118.642 204.996L117.686 205.426C118.024 206.178 117.885 207.142 117.238 208.136C116.596 209.124 115.487 210.073 114.052 210.718L114.484 211.679ZM118.642 204.996L117.452 202.347L116.496 202.777L117.686 205.426L118.642 204.996ZM106.504 207.28C106.172 206.541 106.308 205.578 106.954 204.58C107.594 203.589 108.698 202.635 110.131 201.991L109.7 201.03C108.108 201.745 106.837 202.823 106.073 204.005C105.314 205.179 105.018 206.529 105.548 207.71L106.504 207.28ZM110.131 201.991C111.566 201.346 113.013 201.148 114.178 201.324C115.35 201.501 116.163 202.037 116.501 202.79L117.457 202.36C116.921 201.167 115.715 200.492 114.33 200.283C112.938 200.073 111.29 200.316 109.7 201.03L110.131 201.991ZM116.501 202.79C116.839 203.542 116.7 204.506 116.054 205.499C115.411 206.488 114.303 207.437 112.868 208.082L113.299 209.043C114.889 208.329 116.165 207.257 116.933 206.077C117.696 204.903 117.993 203.553 117.457 202.36L116.501 202.79ZM112.868 208.082C111.432 208.727 109.988 208.924 108.824 208.747C107.654 208.57 106.842 208.033 106.504 207.28L105.548 207.71C106.084 208.902 107.288 209.579 108.672 209.788C110.062 209.999 111.709 209.757 113.299 209.043L112.868 208.082Z" fill="white" stroke="white" stroke-width="1.5"/>
<path fill-rule="evenodd" clip-rule="evenodd" d="M394.216 537.925C386.397 545.77 371.394 549.591 360.774 546.441C357.169 545.372 354.468 543.583 352.979 541.32C354.517 542.307 356.319 543.119 358.35 543.721C364.176 545.448 371.205 545.264 377.85 543.572C384.495 541.879 390.755 538.679 395.045 534.376C396.541 532.875 397.735 531.3 398.614 529.698C398.388 532.397 396.872 535.261 394.217 537.924L394.216 537.925ZM351.777 511.077C355.687 507.154 361.393 504.238 367.448 502.696C373.503 501.154 379.908 500.986 385.218 502.561C391.705 504.484 395.062 508.582 394.198 513.523C393.767 515.988 392.28 518.554 389.9 520.942C382.08 528.787 367.078 532.608 356.459 529.459C353.237 528.503 350.71 526.968 349.151 525.02C346.007 521.092 346.99 515.879 351.777 511.077ZM350.08 529.976C351.566 532.25 354.273 534.048 357.893 535.121C368.512 538.269 383.514 534.448 391.334 526.604C393.989 523.941 395.506 521.078 395.731 518.378C394.849 519.983 393.658 521.559 392.169 523.053C387.879 527.357 381.618 530.558 374.974 532.25C368.328 533.942 361.301 534.126 355.474 532.398C353.437 531.795 351.628 530.973 350.079 529.976L350.08 529.976ZM356.909 538.06C354.876 537.457 353.073 536.644 351.534 535.657C353.023 537.921 355.726 539.711 359.333 540.781C369.953 543.93 384.954 540.109 392.774 532.264C395.431 529.599 396.948 526.735 397.172 524.034C396.294 525.638 395.1 527.214 393.602 528.715C389.312 533.019 383.052 536.22 376.407 537.912C369.763 539.604 362.734 539.788 356.909 538.06ZM367.161 516.52L362.692 520.738L367.841 522.096C369.555 522.548 372.413 521.665 373.956 520.21C374.714 519.495 374.827 518.961 374.78 518.779C374.738 518.614 374.467 518.447 374.072 518.343L367.161 516.52ZM374.281 509.8L369.812 514.019L374.96 515.376C376.675 515.827 379.533 514.947 381.076 513.489C381.834 512.774 381.947 512.241 381.9 512.059C381.858 511.894 381.587 511.727 381.192 511.622L374.281 509.8ZM355.758 522.11L356.517 522.31L358.969 522.957L357.416 524.422C356.782 525.02 356.761 525.993 357.368 526.594C357.975 527.196 358.981 527.199 359.614 526.601L362.329 524.039C362.382 523.989 362.431 523.936 362.476 523.881L363.903 524.258L362.35 525.722C361.716 526.321 361.695 527.294 362.302 527.895C362.709 528.298 363.296 528.433 363.83 528.297C364.092 528.23 364.341 528.099 364.55 527.902L367.265 525.34C367.323 525.285 367.376 525.226 367.424 525.165C370.185 525.664 373.918 524.5 376.155 522.389C377.489 521.131 378.123 519.675 377.937 518.341C379.897 517.934 381.879 516.986 383.275 515.668C384.727 514.299 385.351 512.696 384.988 511.271C384.823 510.622 384.461 510.054 383.941 509.601L385.472 508.157C386.106 507.558 386.127 506.585 385.52 505.984C384.912 505.382 383.907 505.379 383.273 505.978L380.851 508.264C380.832 508.282 380.814 508.299 380.797 508.316L379.384 507.944L380.537 506.856C381.171 506.257 381.193 505.285 380.586 504.683C379.978 504.081 378.973 504.078 378.339 504.676L375.917 506.962C375.898 506.979 375.88 506.997 375.862 507.015L374.293 506.602C374.292 506.602 374.292 506.601 374.29 506.601L370.888 505.705C370.046 505.482 369.163 505.966 368.918 506.785C368.673 507.604 369.158 508.449 370.001 508.67L370.759 508.87L367.48 511.964C367.479 511.965 367.478 511.966 367.476 511.967L365.626 513.713C365.626 513.714 365.625 513.714 365.625 513.715L359.17 519.807L356.649 519.143C355.806 518.92 354.925 519.405 354.679 520.223C354.431 521.044 354.915 521.889 355.758 522.11Z" fill="white"/>
</svg>
