<svg width="77" height="71" viewBox="0 0 77 71" fill="none" xmlns="http://www.w3.org/2000/svg">
<path d="M43.8638 62.9584L50.3181 61.4529C50.5695 61.3695 50.8209 61.2855 51.0723 61.0346L53 59.1107L45.8751 52L43.9474 53.9238C43.7796 54.0913 43.6123 54.3422 43.5281 54.6766L42.0197 61.1179C41.8525 62.2896 42.7745 63.2098 43.8637 62.9583L43.8638 62.9584Z" fill="#3E71DE"/>
<path d="M48 49.8525L64.1527 33L71 40.1475L54.8473 57L48 49.8525Z" fill="#3E71DE"/>
<path d="M76.5694 32.509L71.536 28.3629C70.9485 27.879 70.0263 27.879 69.3551 28.3629L66 31.1265L73.1305 37L76.4857 34.2364C77.1568 33.7525 77.1568 32.9924 76.5693 32.509H76.5694Z" fill="#3E71DE"/>
<path d="M31.283 36H35.2993C35.614 36 35.8508 35.7565 35.8508 35.4314L35.8503 27.1493H37.189C37.8977 27.1493 38.2915 26.2561 37.7406 25.688L29.6289 17.2434C29.3141 16.9189 28.7626 16.9189 28.4478 17.2434L20.2571 25.688C19.7056 26.2567 20.0995 27.1493 20.8872 27.1493H22.226V35.4314C22.226 35.7559 22.4622 36 22.7775 36H26.7938C27.1086 36 27.3454 35.7565 27.3454 35.4314V32.0211C27.3454 31.128 27.8969 30.3157 28.7627 30.2348C29.3928 30.1538 29.9437 30.3158 30.2591 30.7219C30.5739 31.0465 30.7316 31.4526 30.7316 32.0212V35.5123C30.7316 35.7564 30.9678 36 31.2831 36L31.283 36Z" fill="#3E71DE"/>
<path d="M44.9994 44.4971C44.9994 43.0988 44.1281 42 43.0193 42H14.9802C13.8713 42 13 43.0988 13 44.4971C13 45.8954 13.8713 46.9942 14.9802 46.9942H43.0193C44.1287 47.0938 45 45.8954 45 44.4971H44.9994Z" fill="#3E71DE"/>
<path d="M13 56.5296C13 57.353 13.8746 58 14.9878 58H38.1254L39 55.0004L14.9878 55C13.8747 55 13 55.7061 13 56.5295L13 56.5296Z" fill="#3E71DE"/>
<path d="M53.9266 66.9753H4.15407V8.21092H9.61194V10.3038C9.61194 11.4307 10.508 12.3162 11.6485 12.3162C12.7889 12.3162 13.685 11.4307 13.685 10.3038V8.21092H21.098V10.3038C21.098 11.4307 21.9941 12.3162 23.1346 12.3162C24.275 12.3162 25.1711 11.4307 25.1711 10.3038V8.21092H32.5842V10.3038C32.5842 11.4307 33.4802 12.3162 34.6207 12.3162C35.7611 12.3162 36.6572 11.4307 36.6572 10.3038V8.21092H44.0703V10.3038C44.0703 11.4307 44.9664 12.3162 46.1068 12.3162C47.3284 12.3162 48.1433 11.4307 48.1433 10.3038V8.21092H53.6823V37.5931L57.8367 33.5682L57.8372 7.56692C57.8372 5.71559 56.2082 4.10575 54.3347 4.10575H48.2252L48.2246 2.01248C48.2246 0.88552 47.3285 0 46.1881 0C45.0477 0 44.1516 0.88552 44.1516 2.01248V4.10575H36.7385V2.01248C36.7385 0.88552 35.8424 0 34.702 0C33.5616 0 32.6655 0.88552 32.6655 2.01248V4.10575H25.2524L25.253 2.01248C25.253 0.88552 24.3569 0 23.2164 0C22.076 0 21.1799 0.88552 21.1799 2.01248V4.10575H13.7669V2.01248C13.7669 0.88552 12.8708 0 11.7303 0C10.5899 0 9.69382 0.88552 9.69382 2.01248V4.10575H3.50252C1.54732 4.10575 0 5.71559 0 7.56692V67.5388C0 69.4709 1.5479 71 3.50252 71H54.4969C56.3704 71 57.9994 69.4704 57.9994 67.5388L58 58.8449L53.927 62.8699L53.9266 66.9753Z" fill="#3E71DE"/>
</svg>
